<svg width="32" height="32" viewBox="0 0 32 32" fill="none" xmlns="http://www.w3.org/2000/svg">
<g clip-path="url(#clip0_1569_13937)">
<path d="M24.2168 3.44141H7.7668C7.35572 3.44141 6.96147 3.60471 6.67079 3.89539C6.3801 4.18607 6.2168 4.58032 6.2168 4.99141V27.0247C6.21624 27.2454 6.26278 27.4636 6.35332 27.6648C6.44386 27.866 6.5763 28.0455 6.7418 28.1914C7.02742 28.4363 7.39057 28.5721 7.7668 28.5747H24.2168C24.6287 28.5747 25.0238 28.4117 25.3158 28.1213C25.6078 27.8308 25.7729 27.4366 25.7751 27.0247V4.99141C25.7729 4.57956 25.6078 4.18533 25.3158 3.89488C25.0238 3.60444 24.6287 3.4414 24.2168 3.44141ZM24.9501 27.0247C24.9501 27.121 24.9312 27.2164 24.8943 27.3054C24.8575 27.3943 24.8034 27.4752 24.7353 27.5433C24.6673 27.6114 24.5864 27.6654 24.4974 27.7023C24.4085 27.7391 24.3131 27.7581 24.2168 27.7581H7.7668C7.58864 27.7584 7.41658 27.6932 7.28347 27.5747C7.20554 27.5057 7.143 27.4211 7.09993 27.3263C7.05686 27.2316 7.03421 27.1288 7.03347 27.0247V4.99141C7.03347 4.79691 7.11073 4.61039 7.24826 4.47286C7.38578 4.33533 7.57231 4.25807 7.7668 4.25807H24.2168C24.3131 4.25807 24.4085 4.27704 24.4974 4.31389C24.5864 4.35075 24.6673 4.40476 24.7353 4.47286C24.8034 4.54096 24.8575 4.6218 24.8943 4.71077C24.9312 4.79974 24.9501 4.8951 24.9501 4.99141V27.0247Z" fill="#343434"/>
<path d="M16.0001 28.5674C15.8918 28.5674 15.788 28.5244 15.7114 28.4478C15.6348 28.3713 15.5918 28.2674 15.5918 28.1591V3.84245C15.5918 3.73194 15.6357 3.62596 15.7138 3.54782C15.792 3.46968 15.898 3.42578 16.0085 3.42578C16.119 3.42578 16.225 3.46968 16.3031 3.54782C16.3812 3.62596 16.4251 3.73194 16.4251 3.84245V28.1591C16.4252 28.2142 16.4141 28.2687 16.3925 28.3193C16.371 28.37 16.3394 28.4158 16.2997 28.4539C16.26 28.492 16.213 28.5218 16.1615 28.5413C16.11 28.5608 16.0551 28.5697 16.0001 28.5674Z" fill="#343434"/>
<path d="M18.0176 7.19922C18.0176 6.92308 18.2414 6.69922 18.5176 6.69922H23.0009C23.2771 6.69922 23.5009 6.92308 23.5009 7.19922V18.5242C23.5009 18.8004 23.2771 19.0242 23.0009 19.0242H18.5176C18.2414 19.0242 18.0176 18.8004 18.0176 18.5242V7.19922Z" stroke="#343434"/>
<path d="M13 16C13.5523 16 14 15.5523 14 15C14 14.4477 13.5523 14 13 14C12.4477 14 12 14.4477 12 15C12 15.5523 12.4477 16 13 16Z" fill="#343434"/>
</g>
<defs>
<clipPath id="clip0_1569_13937">
<rect width="30" height="30" fill="white" transform="translate(1 1)"/>
</clipPath>
</defs>
</svg>
