<svg width="32" height="32" viewBox="0 0 32 32" fill="none" xmlns="http://www.w3.org/2000/svg">
<g clip-path="url(#clip0_1569_13954)">
<path d="M24.6755 21.2341L21.8589 18.4258L22.3505 17.9258L22.6422 18.2174L22.7255 18.1341L24.6755 20.0841L27.4672 17.2841L26.3672 16.1841L26.9422 15.6091L28.6255 17.2841L24.6755 21.2341ZM9.46719 17.9508C8.39369 17.9597 7.33269 17.7201 6.36719 17.2508L6.77552 16.5341C6.95885 16.6424 11.2672 18.9924 15.6922 13.8008L16.3089 14.3341C13.8422 17.2258 11.3422 17.9508 9.46719 17.9508Z" fill="#343434"/>
<path d="M3.31641 6.27344V25.9984H6.97474V6.27344H3.31641ZM6.15807 25.2068H4.14141V7.09844H6.15807V25.2068Z" fill="#343434"/>
<path d="M17.6668 4.21745L17.3335 3.92578L17.0585 4.25078L11.3418 9.96745L16.0001 14.6674L21.0001 19.6674L22.3168 18.9008L22.6668 18.6674L23.0168 18.4508L26.5501 16.4091L26.9001 16.1924L27.2585 15.9841L28.0918 15.5091L28.5918 15.2341L17.6668 4.21745ZM12.5001 9.96745L15.4751 6.99245L17.3418 5.08411L27.3418 15.0841L24.9418 16.4841L21.1751 18.6591L12.5001 9.96745Z" fill="#343434"/>
</g>
<defs>
<clipPath id="clip0_1569_13954">
<rect width="30" height="30" fill="white" transform="translate(1 1)"/>
</clipPath>
</defs>
</svg>
