<svg width="32" height="32" viewBox="0 0 32 32" fill="none" xmlns="http://www.w3.org/2000/svg">
<g clip-path="url(#clip0_1569_13983)">
<path d="M25.066 6.45642C22.3276 5.78475 21.9401 5.39725 21.2685 2.65892C21.2036 2.50098 21.0932 2.3659 20.9514 2.27083C20.8096 2.17576 20.6427 2.125 20.4719 2.125C20.3012 2.125 20.1343 2.17576 19.9925 2.27083C19.8506 2.3659 19.7403 2.50098 19.6754 2.65892C19.0123 5.38864 18.6162 5.78475 15.8865 6.44781C15.7116 6.49668 15.5566 6.59962 15.4437 6.74191C15.3307 6.88421 15.2657 7.05855 15.2579 7.24003C15.2552 7.4253 15.3161 7.60589 15.4305 7.75165C15.5449 7.8974 15.7059 7.99949 15.8865 8.04086C18.6162 8.71253 19.0123 9.10003 19.6754 11.8298C19.7403 11.9877 19.8506 12.1228 19.9925 12.2178C20.1343 12.3129 20.3012 12.3637 20.4719 12.3637C20.6427 12.3637 20.8096 12.3129 20.9514 12.2178C21.0932 12.1228 21.2036 11.9877 21.2685 11.8298C21.9401 9.09142 22.3276 8.70392 25.066 8.03225C25.2239 7.96737 25.359 7.85701 25.454 7.71518C25.5491 7.57335 25.5999 7.40646 25.5999 7.23572C25.5999 7.06498 25.5491 6.89809 25.454 6.75626C25.359 6.61444 25.2239 6.50407 25.066 6.43919V6.45642ZM18.3407 7.98919H18.2976C18.1233 7.88883 17.9385 7.80797 17.7465 7.74808L17.4968 7.66197C17.2815 7.58447 17.0576 7.51558 16.8079 7.44669C16.6185 7.38642 16.4118 7.33475 16.1965 7.28308C16.4118 7.23142 16.6185 7.17975 16.8079 7.11947C17.0415 7.05776 17.2715 6.98301 17.4968 6.89558L17.7465 6.80947H17.8498L17.9962 6.7492L18.1512 6.68031C18.9206 6.32161 19.522 5.68008 19.8304 4.88919C20.0768 4.29912 20.2699 3.68816 20.4073 3.06364C21.1307 5.98281 21.7679 6.62003 24.7129 7.3692C21.7851 8.09253 21.1479 8.72975 20.4073 11.6748C20.2675 11.0509 20.0745 10.4401 19.8304 9.84919C19.5876 9.06276 19.0551 8.39793 18.3407 7.98919Z" fill="#343434"/>
<path d="M17.3435 15.8635C15.1305 12.531 12.9174 8.1049 12.9174 5.71962C12.9174 5.60543 12.8721 5.49591 12.7913 5.41517C12.7106 5.33442 12.6011 5.28906 12.4869 5.28906C12.3727 5.28906 12.2632 5.33442 12.1824 5.41517C12.1017 5.49591 12.0563 5.60543 12.0563 5.71962C12.0563 8.11351 9.82604 12.6085 7.61298 15.8291C5.39993 19.0496 5.26215 21.3402 5.34826 22.1496C5.39568 23.9928 6.17011 25.7425 7.50261 27.0169C8.83511 28.2914 10.6175 28.9871 12.461 28.9524C14.3013 28.9787 16.0793 28.2864 17.4171 27.0225C18.755 25.7586 19.5472 24.0228 19.6255 22.1841C19.6772 21.1852 19.4791 19.0496 17.3435 15.8635ZM8.29326 16.3113C9.6792 14.2736 10.8672 12.1081 11.841 9.84434C12.0822 9.25879 12.2888 8.67323 12.461 8.12212C13.4986 11.0364 14.9051 13.8059 16.646 16.363C18.6438 19.3596 18.8333 21.2885 18.7644 22.1668C18.6928 23.7863 17.9925 25.314 16.8121 26.4252C15.6318 27.5364 14.0647 28.1434 12.4438 28.1171C11.17 28.1291 9.92282 27.7522 8.86884 27.0367C7.81486 26.3212 7.00424 25.3013 6.54521 24.113C6.30221 23.4841 6.17952 22.8152 6.18354 22.141V22.0893C6.10604 21.5296 6.07159 19.5232 8.29326 16.3113Z" fill="#343434"/>
</g>
<defs>
<clipPath id="clip0_1569_13983">
<rect width="32" height="32" fill="white"/>
</clipPath>
</defs>
</svg>
