<svg xmlns="http://www.w3.org/2000/svg" width="32" height="32" fill="none" viewBox="0 0 32 32"><g fill="#343434" clip-path="url(#a)"><path d="M25.168 5.39H6.834a1.21 1.21 0 0 0-1.191 1.2V26.5a1.2 1.2 0 0 0 1.191 1.167h18.334a1.2 1.2 0 0 0 1.208-1.2V6.59a1.21 1.21 0 0 0-1.208-1.2M25.55 26.5a.377.377 0 0 1-.383.383H6.834a.375.375 0 0 1-.383-.383V6.591a.383.383 0 0 1 .383-.384h18.334a.383.383 0 0 1 .383.384z"/><path d="M22 9.8H9.375a1.067 1.067 0 0 0-1.066 1.067v16.425a.41.41 0 0 0 .408.409h13.95a.41.41 0 0 0 .408-.409V10.867A1.075 1.075 0 0 0 22 9.801M9.125 26.885V10.867a.26.26 0 0 1 .25-.25H22a.26.26 0 0 1 .25.25v16.017z"/><path d="M16.1 10.209v17.083a.417.417 0 0 1-.833 0V10.209a.416.416 0 1 1 .834 0m6.25-1.992a.416.416 0 0 1-.416.417H9.226a.41.41 0 0 1-.408-.417.3.3 0 0 1 0-.092.41.41 0 0 1 .4-.316h12.716a.4.4 0 0 1 .392.283q.024.06.025.125"/><circle cx="24.5" cy="15.5" r=".5"/><circle cx="24.5" cy="17.5" r=".5"/></g><defs><clipPath id="a"><path fill="#fff" d="M1 1h30v30H1z"/></clipPath></defs></svg>