<svg xmlns="http://www.w3.org/2000/svg" width="56" height="56" fill="none" viewBox="0 0 56 56"><path fill="#FED3E3" d="M56 43.575V10.173a8 8 0 0 0-7.64-7.992L8.36.377A8 8 0 0 0 0 8.37v38.866C0 51.94 4.042 55.63 8.729 55.2l40-3.66A8 8 0 0 0 56 43.576"/><path fill="#fff" stroke="#343434" stroke-linejoin="round" stroke-width="1.5" d="M20.91 22.927a.75.75 0 0 0 .75.787h3.835a.75.75 0 0 0 .746-.673c.06-.576.265-1.007.596-1.338.309-.309.778-.509 1.514-.509.778 0 1.244.194 1.525.463l.01.01c.3.276.487.683.487 1.325 0 .67-.232 1.085-.66 1.372-.483.322-1.3.538-2.566.538h-.812a.75.75 0 0 0-.75.75v3.22c0 .415.336.75.75.75h.812c1.441 0 2.358.24 2.88.597.445.304.738.833.738 1.79 0 .67-.202 1.166-.573 1.55-.323.335-.83.555-1.645.555-.887 0-1.499-.23-1.923-.61-.416-.406-.657-.949-.687-1.694a.75.75 0 0 0-.75-.72H21.38a.75.75 0 0 0-.75.777c.081 2.238.848 4.032 2.38 5.262 1.489 1.195 3.384 1.761 5.622 1.761 1.485 0 2.798-.257 3.914-.804l.006-.003c1.122-.561 1.994-1.347 2.58-2.364.596-1.003.886-2.135.886-3.375 0-1.456-.334-2.72-1.061-3.736a5.2 5.2 0 0 0-1.547-1.463q.65-.483 1.171-1.184c.727-.97 1.073-2.132 1.073-3.445 0-1.152-.284-2.204-.865-3.134-.57-.96-1.414-1.695-2.495-2.215-1.096-.547-2.382-.805-3.83-.805-2.128 0-3.926.55-5.323 1.713-1.405 1.167-2.128 2.818-2.23 4.852Z"/></svg>