<svg xmlns="http://www.w3.org/2000/svg" width="56" height="56" fill="none"><path fill="#FFE3A4" d="M0 12.425v33.402a8 8 0 0 0 7.64 7.992l40 1.804A8 8 0 0 0 56 47.63V8.765C56 4.06 51.958.37 47.271.8l-40 3.66A8 8 0 0 0 0 12.424"/><path fill="#fff" stroke="#343434" stroke-linejoin="round" stroke-width="1.5" d="m22.697 34-.005.003-1.456 1.232a.75.75 0 0 0-.265.573v2.912c0 .414.336.75.75.75h13.832a.75.75 0 0 0 .75-.75v-3.248a.75.75 0 0 0-.75-.75H29.31a73 73 0 0 0 2.451-2.238l.005-.005a17.6 17.6 0 0 0 2.808-3.625c.849-1.434 1.28-2.956 1.28-4.554 0-2.014-.626-3.702-1.929-4.985-1.32-1.319-3.169-1.925-5.428-1.925-2.102 0-3.896.632-5.321 1.931l-.004.004c-1.44 1.332-2.15 3.247-2.229 5.622a.75.75 0 0 0 .75.775H25.5a.75.75 0 0 0 .75-.737c.017-.975.25-1.641.614-2.086l.007-.009c.34-.427.825-.668 1.569-.668.788 0 1.232.223 1.494.54.303.366.5.922.5 1.762 0 .868-.293 1.79-.941 2.78q-1.009 1.542-2.546 3-1.574 1.464-4.251 3.695Z"/></svg>