<svg width="32" height="32" viewBox="0 0 32 32" fill="none" xmlns="http://www.w3.org/2000/svg">
<g clip-path="url(#clip0_1793_16911)">
<path d="M24.2833 5H7.19167C6.6104 5 6.05294 5.23091 5.64192 5.64192C5.23091 6.05294 5 6.6104 5 7.19167V24.2833C5 24.8646 5.23091 25.4221 5.64192 25.8331C6.05294 26.2441 6.6104 26.475 7.19167 26.475H24.2833C24.8646 26.475 25.4221 26.2441 25.8331 25.8331C26.2441 25.4221 26.475 24.8646 26.475 24.2833V7.19167C26.475 6.6104 26.2441 6.05294 25.8331 5.64192C25.4221 5.23091 24.8646 5 24.2833 5ZM25.65 24.2833C25.65 24.6466 25.5063 24.995 25.2502 25.2527C24.9942 25.5103 24.6466 25.6561 24.2833 25.6583H7.19167C6.82699 25.6583 6.47726 25.5135 6.21939 25.2556C5.96153 24.9977 5.81667 24.648 5.81667 24.2833V7.19167C5.81887 6.82844 5.9647 6.48084 6.22233 6.22478C6.47995 5.96871 6.82843 5.82499 7.19167 5.825H24.2833C24.6451 5.82719 24.9915 5.97188 25.2473 6.2277C25.5031 6.48353 25.6478 6.82988 25.65 7.19167V24.2833Z" fill="#343434"/>
<path d="M25.65 24.2833C25.65 24.6466 25.5063 24.995 25.2502 25.2527C24.9942 25.5103 24.6466 25.6561 24.2833 25.6583H7.19167C6.82699 25.6583 6.47726 25.5135 6.21939 25.2556C5.96153 24.9977 5.81667 24.648 5.81667 24.2833V7.19167C5.81887 6.82844 5.9647 6.48084 6.22233 6.22478C6.47995 5.96871 6.82843 5.82499 7.19167 5.825H24.2833C24.6451 5.82719 24.9915 5.97188 25.2473 6.2277C25.5031 6.48353 25.6478 6.82988 25.65 7.19167V24.2833Z" fill="white"/>
<path d="M16.2167 12.4049H14.55C14.4957 12.4048 14.4419 12.4157 14.3918 12.4367C14.3417 12.4578 14.2963 12.4886 14.2583 12.5274C14.2203 12.5662 14.1903 12.6122 14.1703 12.6627C14.1503 12.7132 14.1406 12.7672 14.1417 12.8215V15.9215C14.1417 16.0298 14.1847 16.1337 14.2613 16.2103C14.3378 16.2868 14.4417 16.3299 14.55 16.3299H16.2167C16.2537 16.3323 16.2907 16.3336 16.3278 16.3339C16.5591 16.3359 16.7893 16.2971 17.0076 16.2189C17.2609 16.1282 17.4929 15.9865 17.6893 15.8025C17.8856 15.6186 18.0421 15.3963 18.1491 15.1494C18.2561 14.9026 18.3113 14.6364 18.3113 14.3674C18.3113 14.0983 18.2561 13.8321 18.1491 13.5853C18.0421 13.3384 17.8856 13.1161 17.6893 12.9322C17.4929 12.7482 17.2609 12.6065 17.0076 12.5158C16.7893 12.4376 16.5591 12.3988 16.3278 12.4008C16.2907 12.4011 16.2537 12.4024 16.2167 12.4049ZM14.9083 15.5132V13.2299H16.1667C16.65 13.2299 17.4583 13.3799 17.4583 14.3799C17.4583 15.1049 16.9833 15.5132 16.1667 15.5132H14.9083ZM16.1833 12.4049H14.5167C14.4623 12.4048 14.4085 12.4157 14.3585 12.4367C14.3084 12.4578 14.263 12.4886 14.2249 12.5274C14.1869 12.5662 14.157 12.6122 14.137 12.6627C14.117 12.7132 14.1072 12.7672 14.1083 12.8215V15.9215C14.1083 16.0298 14.1514 16.1337 14.2279 16.2103C14.3045 16.2868 14.4084 16.3299 14.5167 16.3299H16.1833C16.2315 16.333 16.2797 16.3344 16.3278 16.3339C16.5479 16.3321 16.7664 16.2933 16.9743 16.2189C17.2276 16.1282 17.4596 15.9865 17.6559 15.8025C17.8523 15.6186 18.0088 15.3963 18.1158 15.1494C18.2227 14.9026 18.278 14.6364 18.278 14.3674C18.278 14.0983 18.2227 13.8321 18.1158 13.5853C18.0088 13.3384 17.8523 13.1161 17.6559 12.9322C17.4596 12.7482 17.2276 12.6065 16.9743 12.5158C16.7664 12.4414 16.5479 12.4026 16.3278 12.4008C16.2797 12.4004 16.2315 12.4017 16.1833 12.4049ZM14.9083 15.5132V13.2299H16.1667C16.65 13.2299 17.4583 13.3799 17.4583 14.3799C17.4583 15.1049 16.9833 15.5132 16.1667 15.5132H14.9083ZM16.1833 12.4049H14.5167C14.4623 12.4048 14.4085 12.4157 14.3585 12.4367C14.3084 12.4578 14.263 12.4886 14.2249 12.5274C14.1869 12.5662 14.157 12.6122 14.137 12.6627C14.117 12.7132 14.1072 12.7672 14.1083 12.8215V15.9215C14.1083 16.0298 14.1514 16.1337 14.2279 16.2103C14.3045 16.2868 14.4084 16.3299 14.5167 16.3299H16.1833C16.2315 16.333 16.2797 16.3344 16.3278 16.3339C16.5479 16.3321 16.7664 16.2933 16.9743 16.2189C17.2276 16.1282 17.4596 15.9865 17.6559 15.8025C17.8523 15.6186 18.0088 15.3963 18.1158 15.1494C18.2227 14.9026 18.278 14.6364 18.278 14.3674C18.278 14.0983 18.2227 13.8321 18.1158 13.5853C18.0088 13.3384 17.8523 13.1161 17.6559 12.9322C17.4596 12.7482 17.2276 12.6065 16.9743 12.5158C16.7664 12.4414 16.5479 12.4026 16.3278 12.4008C16.2797 12.4004 16.2315 12.4017 16.1833 12.4049ZM14.9083 15.5132V13.2299H16.1667C16.65 13.2299 17.4583 13.3799 17.4583 14.3799C17.4583 15.1049 16.9833 15.5132 16.1667 15.5132H14.9083ZM16.1833 12.4049H14.5167C14.4623 12.4048 14.4085 12.4157 14.3585 12.4367C14.3084 12.4578 14.263 12.4886 14.2249 12.5274C14.1869 12.5662 14.157 12.6122 14.137 12.6627C14.117 12.7132 14.1072 12.7672 14.1083 12.8215V15.9215C14.1083 16.0298 14.1514 16.1337 14.2279 16.2103C14.3045 16.2868 14.4084 16.3299 14.5167 16.3299H16.1833C16.2315 16.333 16.2797 16.3344 16.3278 16.3339C16.5479 16.3321 16.7664 16.2933 16.9743 16.2189C17.2276 16.1282 17.4596 15.9865 17.6559 15.8025C17.8523 15.6186 18.0088 15.3963 18.1158 15.1494C18.2227 14.9026 18.278 14.6364 18.278 14.3674C18.278 14.0983 18.2227 13.8321 18.1158 13.5853C18.0088 13.3384 17.8523 13.1161 17.6559 12.9322C17.4596 12.7482 17.2276 12.6065 16.9743 12.5158C16.7664 12.4414 16.5479 12.4026 16.3278 12.4008C16.2797 12.4004 16.2315 12.4017 16.1833 12.4049ZM14.9083 15.5132V13.2299H16.1667C16.65 13.2299 17.4583 13.3799 17.4583 14.3799C17.4583 15.1049 16.9833 15.5132 16.1667 15.5132H14.9083ZM16.1833 12.4049H14.5167C14.4623 12.4048 14.4085 12.4157 14.3585 12.4367C14.3084 12.4578 14.263 12.4886 14.2249 12.5274C14.1869 12.5662 14.157 12.6122 14.137 12.6627C14.117 12.7132 14.1072 12.7672 14.1083 12.8215V15.9215C14.1083 16.0298 14.1514 16.1337 14.2279 16.2103C14.3045 16.2868 14.4084 16.3299 14.5167 16.3299H16.1833C16.2315 16.333 16.2797 16.3344 16.3278 16.3339C16.5479 16.3321 16.7664 16.2933 16.9743 16.2189C17.2276 16.1282 17.4596 15.9865 17.6559 15.8025C17.8523 15.6186 18.0088 15.3963 18.1158 15.1494C18.2227 14.9026 18.278 14.6364 18.278 14.3674C18.278 14.0983 18.2227 13.8321 18.1158 13.5853C18.0088 13.3384 17.8523 13.1161 17.6559 12.9322C17.4596 12.7482 17.2276 12.6065 16.9743 12.5158C16.7664 12.4414 16.5479 12.4026 16.3278 12.4008C16.2797 12.4004 16.2315 12.4017 16.1833 12.4049ZM14.9083 15.5132V13.2299H16.1667C16.65 13.2299 17.4583 13.3799 17.4583 14.3799C17.4583 15.1049 16.9833 15.5132 16.1667 15.5132H14.9083ZM16.1833 12.4049H14.5167C14.4623 12.4048 14.4085 12.4157 14.3585 12.4367C14.3084 12.4578 14.263 12.4886 14.2249 12.5274C14.1869 12.5662 14.157 12.6122 14.137 12.6627C14.117 12.7132 14.1072 12.7672 14.1083 12.8215V15.9215C14.1083 16.0298 14.1514 16.1337 14.2279 16.2103C14.3045 16.2868 14.4084 16.3299 14.5167 16.3299H16.1833C16.2315 16.333 16.2797 16.3344 16.3278 16.3339C16.5479 16.3321 16.7664 16.2933 16.9743 16.2189C17.2276 16.1282 17.4596 15.9865 17.6559 15.8025C17.8523 15.6186 18.0088 15.3963 18.1158 15.1494C18.2227 14.9026 18.278 14.6364 18.278 14.3674C18.278 14.0983 18.2227 13.8321 18.1158 13.5853C18.0088 13.3384 17.8523 13.1161 17.6559 12.9322C17.4596 12.7482 17.2276 12.6065 16.9743 12.5158C16.7664 12.4414 16.5479 12.4026 16.3278 12.4008C16.2797 12.4004 16.2315 12.4017 16.1833 12.4049ZM14.9083 15.5132V13.2299H16.1667C16.65 13.2299 17.4583 13.3799 17.4583 14.3799C17.4583 15.1049 16.9833 15.5132 16.1667 15.5132H14.9083ZM16.1833 12.4049H14.5167C14.4623 12.4048 14.4085 12.4157 14.3585 12.4367C14.3084 12.4578 14.263 12.4886 14.2249 12.5274C14.1869 12.5662 14.157 12.6122 14.137 12.6627C14.117 12.7132 14.1072 12.7672 14.1083 12.8215V15.9215C14.1083 16.0298 14.1514 16.1337 14.2279 16.2103C14.3045 16.2868 14.4084 16.3299 14.5167 16.3299H16.1833C16.2315 16.333 16.2797 16.3344 16.3278 16.3339C16.5479 16.3321 16.7664 16.2933 16.9743 16.2189C17.2276 16.1282 17.4596 15.9865 17.6559 15.8025C17.8523 15.6186 18.0088 15.3963 18.1158 15.1494C18.2227 14.9026 18.278 14.6364 18.278 14.3674C18.278 14.0983 18.2227 13.8321 18.1158 13.5853C18.0088 13.3384 17.8523 13.1161 17.6559 12.9322C17.4596 12.7482 17.2276 12.6065 16.9743 12.5158C16.7664 12.4414 16.5479 12.4026 16.3278 12.4008C16.2797 12.4004 16.2315 12.4017 16.1833 12.4049ZM14.9083 15.5132V13.2299H16.1667C16.65 13.2299 17.4583 13.3799 17.4583 14.3799C17.4583 15.1049 16.9833 15.5132 16.1667 15.5132H14.9083ZM16.1833 12.4049H14.5167C14.4623 12.4048 14.4085 12.4157 14.3585 12.4367C14.3084 12.4578 14.263 12.4886 14.2249 12.5274C14.1869 12.5662 14.157 12.6122 14.137 12.6627C14.117 12.7132 14.1072 12.7672 14.1083 12.8215V15.9215C14.1083 16.0298 14.1514 16.1337 14.2279 16.2103C14.3045 16.2868 14.4084 16.3299 14.5167 16.3299H16.1833C16.2315 16.333 16.2797 16.3344 16.3278 16.3339C16.5479 16.3321 16.7664 16.2933 16.9743 16.2189C17.2276 16.1282 17.4596 15.9865 17.6559 15.8025C17.8523 15.6186 18.0088 15.3963 18.1158 15.1494C18.2227 14.9026 18.278 14.6364 18.278 14.3674C18.278 14.0983 18.2227 13.8321 18.1158 13.5853C18.0088 13.3384 17.8523 13.1161 17.6559 12.9322C17.4596 12.7482 17.2276 12.6065 16.9743 12.5158C16.7664 12.4414 16.5479 12.4026 16.3278 12.4008C16.2797 12.4004 16.2315 12.4017 16.1833 12.4049ZM14.9083 15.5132V13.2299H16.1667C16.65 13.2299 17.4583 13.3799 17.4583 14.3799C17.4583 15.1049 16.9833 15.5132 16.1667 15.5132H14.9083ZM16.1833 12.4049H14.5167C14.4623 12.4048 14.4085 12.4157 14.3585 12.4367C14.3084 12.4578 14.263 12.4886 14.2249 12.5274C14.1869 12.5662 14.157 12.6122 14.137 12.6627C14.117 12.7132 14.1072 12.7672 14.1083 12.8215V15.9215C14.1083 16.0298 14.1514 16.1337 14.2279 16.2103C14.3045 16.2868 14.4084 16.3299 14.5167 16.3299H16.1833C16.2315 16.333 16.2797 16.3344 16.3278 16.3339C16.5479 16.3321 16.7664 16.2933 16.9743 16.2189C17.2276 16.1282 17.4596 15.9865 17.6559 15.8025C17.8523 15.6186 18.0088 15.3963 18.1158 15.1494C18.2227 14.9026 18.278 14.6364 18.278 14.3674C18.278 14.0983 18.2227 13.8321 18.1158 13.5853C18.0088 13.3384 17.8523 13.1161 17.6559 12.9322C17.4596 12.7482 17.2276 12.6065 16.9743 12.5158C16.7664 12.4414 16.5479 12.4026 16.3278 12.4008C16.2797 12.4004 16.2315 12.4017 16.1833 12.4049ZM14.9083 15.5132V13.2299H16.1667C16.65 13.2299 17.4583 13.3799 17.4583 14.3799C17.4583 15.1049 16.9833 15.5132 16.1667 15.5132H14.9083ZM16.1833 12.4049H14.5167C14.4623 12.4048 14.4085 12.4157 14.3585 12.4367C14.3084 12.4578 14.263 12.4886 14.2249 12.5274C14.1869 12.5662 14.157 12.6122 14.137 12.6627C14.117 12.7132 14.1072 12.7672 14.1083 12.8215V15.9215C14.1083 16.0298 14.1514 16.1337 14.2279 16.2103C14.3045 16.2868 14.4084 16.3299 14.5167 16.3299H16.1833C16.2315 16.333 16.2797 16.3344 16.3278 16.3339C16.5479 16.3321 16.7664 16.2933 16.9743 16.2189C17.2276 16.1282 17.4596 15.9865 17.6559 15.8025C17.8523 15.6186 18.0088 15.3963 18.1158 15.1494C18.2227 14.9026 18.278 14.6364 18.278 14.3674C18.278 14.0983 18.2227 13.8321 18.1158 13.5853C18.0088 13.3384 17.8523 13.1161 17.6559 12.9322C17.4596 12.7482 17.2276 12.6065 16.9743 12.5158C16.7664 12.4414 16.5479 12.4026 16.3278 12.4008C16.2797 12.4004 16.2315 12.4017 16.1833 12.4049ZM14.9083 15.5132V13.2299H16.1667C16.65 13.2299 17.4583 13.3799 17.4583 14.3799C17.4583 15.1049 16.9833 15.5132 16.1667 15.5132H14.9083ZM16.1833 12.4049H14.5167C14.4623 12.4048 14.4085 12.4157 14.3585 12.4367C14.3084 12.4578 14.263 12.4886 14.2249 12.5274C14.1869 12.5662 14.157 12.6122 14.137 12.6627C14.117 12.7132 14.1072 12.7672 14.1083 12.8215V15.9215C14.1083 16.0298 14.1514 16.1337 14.2279 16.2103C14.3045 16.2868 14.4084 16.3299 14.5167 16.3299H16.1833C16.2315 16.333 16.2797 16.3344 16.3278 16.3339C16.5479 16.3321 16.7664 16.2933 16.9743 16.2189C17.2276 16.1282 17.4596 15.9865 17.6559 15.8025C17.8523 15.6186 18.0088 15.3963 18.1158 15.1494C18.2227 14.9026 18.278 14.6364 18.278 14.3674C18.278 14.0983 18.2227 13.8321 18.1158 13.5853C18.0088 13.3384 17.8523 13.1161 17.6559 12.9322C17.4596 12.7482 17.2276 12.6065 16.9743 12.5158C16.7664 12.4414 16.5479 12.4026 16.3278 12.4008C16.2797 12.4004 16.2315 12.4017 16.1833 12.4049ZM14.9083 15.5132V13.2299H16.1667C16.65 13.2299 17.4583 13.3799 17.4583 14.3799C17.4583 15.1049 16.9833 15.5132 16.1667 15.5132H14.9083ZM16.1833 12.4049H14.5167C14.4623 12.4048 14.4085 12.4157 14.3585 12.4367C14.3084 12.4578 14.263 12.4886 14.2249 12.5274C14.1869 12.5662 14.157 12.6122 14.137 12.6627C14.117 12.7132 14.1072 12.7672 14.1083 12.8215V15.9215C14.1083 16.0298 14.1514 16.1337 14.2279 16.2103C14.3045 16.2868 14.4084 16.3299 14.5167 16.3299H16.1833C16.2315 16.333 16.2797 16.3344 16.3278 16.3339C16.5479 16.3321 16.7664 16.2933 16.9743 16.2189C17.2276 16.1282 17.4596 15.9865 17.6559 15.8025C17.8523 15.6186 18.0088 15.3963 18.1158 15.1494C18.2227 14.9026 18.278 14.6364 18.278 14.3674C18.278 14.0983 18.2227 13.8321 18.1158 13.5853C18.0088 13.3384 17.8523 13.1161 17.6559 12.9322C17.4596 12.7482 17.2276 12.6065 16.9743 12.5158C16.7664 12.4414 16.5479 12.4026 16.3278 12.4008C16.2797 12.4004 16.2315 12.4017 16.1833 12.4049ZM14.9083 15.5132V13.2299H16.1667C16.65 13.2299 17.4583 13.3799 17.4583 14.3799C17.4583 15.1049 16.9833 15.5132 16.1667 15.5132H14.9083ZM16.1833 12.4049H14.5167C14.4623 12.4048 14.4085 12.4157 14.3585 12.4367C14.3084 12.4578 14.263 12.4886 14.2249 12.5274C14.1869 12.5662 14.157 12.6122 14.137 12.6627C14.117 12.7132 14.1072 12.7672 14.1083 12.8215V15.9215C14.1083 16.0298 14.1514 16.1337 14.2279 16.2103C14.3045 16.2868 14.4084 16.3299 14.5167 16.3299H16.1833C16.2315 16.333 16.2797 16.3344 16.3278 16.3339C16.5479 16.3321 16.7664 16.2933 16.9743 16.2189C17.2276 16.1282 17.4596 15.9865 17.6559 15.8025C17.8523 15.6186 18.0088 15.3963 18.1158 15.1494C18.2227 14.9026 18.278 14.6364 18.278 14.3674C18.278 14.0983 18.2227 13.8321 18.1158 13.5853C18.0088 13.3384 17.8523 13.1161 17.6559 12.9322C17.4596 12.7482 17.2276 12.6065 16.9743 12.5158C16.7664 12.4414 16.5479 12.4026 16.3278 12.4008C16.2797 12.4004 16.2315 12.4017 16.1833 12.4049ZM14.9083 15.5132V13.2299H16.1667C16.65 13.2299 17.4583 13.3799 17.4583 14.3799C17.4583 15.1049 16.9833 15.5132 16.1667 15.5132H14.9083ZM16.1833 12.4049H14.5167C14.4623 12.4048 14.4085 12.4157 14.3585 12.4367C14.3084 12.4578 14.263 12.4886 14.2249 12.5274C14.1869 12.5662 14.157 12.6122 14.137 12.6627C14.117 12.7132 14.1072 12.7672 14.1083 12.8215V15.9215C14.1083 16.0298 14.1514 16.1337 14.2279 16.2103C14.3045 16.2868 14.4084 16.3299 14.5167 16.3299H16.1833C16.2315 16.333 16.2797 16.3344 16.3278 16.3339C16.5479 16.3321 16.7664 16.2933 16.9743 16.2189C17.2276 16.1282 17.4596 15.9865 17.6559 15.8025C17.8523 15.6186 18.0088 15.3963 18.1158 15.1494C18.2227 14.9026 18.278 14.6364 18.278 14.3674C18.278 14.0983 18.2227 13.8321 18.1158 13.5853C18.0088 13.3384 17.8523 13.1161 17.6559 12.9322C17.4596 12.7482 17.2276 12.6065 16.9743 12.5158C16.7664 12.4414 16.5479 12.4026 16.3278 12.4008C16.2797 12.4004 16.2315 12.4017 16.1833 12.4049ZM14.9083 15.5132V13.2299H16.1667C16.65 13.2299 17.4583 13.3799 17.4583 14.3799C17.4583 15.1049 16.9833 15.5132 16.1667 15.5132H14.9083ZM16.1833 12.4049H14.5167C14.4623 12.4048 14.4085 12.4157 14.3585 12.4367C14.3084 12.4578 14.263 12.4886 14.2249 12.5274C14.1869 12.5662 14.157 12.6122 14.137 12.6627C14.117 12.7132 14.1072 12.7672 14.1083 12.8215V15.9215C14.1083 16.0298 14.1514 16.1337 14.2279 16.2103C14.3045 16.2868 14.4084 16.3299 14.5167 16.3299H16.1833C16.2315 16.333 16.2797 16.3344 16.3278 16.3339C16.5479 16.3321 16.7664 16.2933 16.9743 16.2189C17.2276 16.1282 17.4596 15.9865 17.6559 15.8025C17.8523 15.6186 18.0088 15.3963 18.1158 15.1494C18.2227 14.9026 18.278 14.6364 18.278 14.3674C18.278 14.0983 18.2227 13.8321 18.1158 13.5853C18.0088 13.3384 17.8523 13.1161 17.6559 12.9322C17.4596 12.7482 17.2276 12.6065 16.9743 12.5158C16.7664 12.4414 16.5479 12.4026 16.3278 12.4008C16.2797 12.4004 16.2315 12.4017 16.1833 12.4049ZM14.9083 15.5132V13.2299H16.1667C16.65 13.2299 17.4583 13.3799 17.4583 14.3799C17.4583 15.1049 16.9833 15.5132 16.1667 15.5132H14.9083ZM16.1833 12.4049H14.5167C14.4623 12.4048 14.4085 12.4157 14.3585 12.4367C14.3084 12.4578 14.263 12.4886 14.2249 12.5274C14.1869 12.5662 14.157 12.6122 14.137 12.6627C14.117 12.7132 14.1072 12.7672 14.1083 12.8215V15.9215C14.1083 16.0298 14.1514 16.1337 14.2279 16.2103C14.3045 16.2868 14.4084 16.3299 14.5167 16.3299H16.1833C16.2315 16.333 16.2797 16.3344 16.3278 16.3339C16.5479 16.3321 16.7664 16.2933 16.9743 16.2189C17.2276 16.1282 17.4596 15.9865 17.6559 15.8025C17.8523 15.6186 18.0088 15.3963 18.1158 15.1494C18.2227 14.9026 18.278 14.6364 18.278 14.3674C18.278 14.0983 18.2227 13.8321 18.1158 13.5853C18.0088 13.3384 17.8523 13.1161 17.6559 12.9322C17.4596 12.7482 17.2276 12.6065 16.9743 12.5158C16.7664 12.4414 16.5479 12.4026 16.3278 12.4008C16.2797 12.4004 16.2315 12.4017 16.1833 12.4049ZM14.9083 15.5132V13.2299H16.1667C16.65 13.2299 17.4583 13.3799 17.4583 14.3799C17.4583 15.1049 16.9833 15.5132 16.1667 15.5132H14.9083ZM16.1833 12.4049H14.5167C14.4623 12.4048 14.4085 12.4157 14.3585 12.4367C14.3084 12.4578 14.263 12.4886 14.2249 12.5274C14.1869 12.5662 14.157 12.6122 14.137 12.6627C14.117 12.7132 14.1072 12.7672 14.1083 12.8215V15.9215C14.1083 16.0298 14.1514 16.1337 14.2279 16.2103C14.3045 16.2868 14.4084 16.3299 14.5167 16.3299H16.1833C16.2315 16.333 16.2797 16.3344 16.3278 16.3339C16.5479 16.3321 16.7664 16.2933 16.9743 16.2189C17.2276 16.1282 17.4596 15.9865 17.6559 15.8025C17.8523 15.6186 18.0088 15.3963 18.1158 15.1494C18.2227 14.9026 18.278 14.6364 18.278 14.3674C18.278 14.0983 18.2227 13.8321 18.1158 13.5853C18.0088 13.3384 17.8523 13.1161 17.6559 12.9322C17.4596 12.7482 17.2276 12.6065 16.9743 12.5158C16.7664 12.4414 16.5479 12.4026 16.3278 12.4008C16.2797 12.4004 16.2315 12.4017 16.1833 12.4049ZM14.9083 15.5132V13.2299H16.1667C16.65 13.2299 17.4583 13.3799 17.4583 14.3799C17.4583 15.1049 16.9833 15.5132 16.1667 15.5132H14.9083ZM16.1833 12.4049H14.5167C14.4623 12.4048 14.4085 12.4157 14.3585 12.4367C14.3084 12.4578 14.263 12.4886 14.2249 12.5274C14.1869 12.5662 14.157 12.6122 14.137 12.6627C14.117 12.7132 14.1072 12.7672 14.1083 12.8215V15.9215C14.1083 16.0298 14.1514 16.1337 14.2279 16.2103C14.3045 16.2868 14.4084 16.3299 14.5167 16.3299H16.1833C16.2315 16.333 16.2797 16.3344 16.3278 16.3339C16.5479 16.3321 16.7664 16.2933 16.9743 16.2189C17.2276 16.1282 17.4596 15.9865 17.6559 15.8025C17.8523 15.6186 18.0088 15.3963 18.1158 15.1494C18.2227 14.9026 18.278 14.6364 18.278 14.3674C18.278 14.0983 18.2227 13.8321 18.1158 13.5853C18.0088 13.3384 17.8523 13.1161 17.6559 12.9322C17.4596 12.7482 17.2276 12.6065 16.9743 12.5158C16.7664 12.4414 16.5479 12.4026 16.3278 12.4008C16.2797 12.4004 16.2315 12.4017 16.1833 12.4049ZM14.9083 15.5132V13.2299H16.1667C16.65 13.2299 17.4583 13.3799 17.4583 14.3799C17.4583 15.1049 16.9833 15.5132 16.1667 15.5132H14.9083ZM16.1833 12.4049H14.5167C14.4623 12.4048 14.4085 12.4157 14.3585 12.4367C14.3084 12.4578 14.263 12.4886 14.2249 12.5274C14.1869 12.5662 14.157 12.6122 14.137 12.6627C14.117 12.7132 14.1072 12.7672 14.1083 12.8215V15.9215C14.1083 16.0298 14.1514 16.1337 14.2279 16.2103C14.3045 16.2868 14.4084 16.3299 14.5167 16.3299H16.1833C16.2315 16.333 16.2797 16.3344 16.3278 16.3339C16.5479 16.3321 16.7664 16.2933 16.9743 16.2189C17.2276 16.1282 17.4596 15.9865 17.6559 15.8025C17.8523 15.6186 18.0088 15.3963 18.1158 15.1494C18.2227 14.9026 18.278 14.6364 18.278 14.3674C18.278 14.0983 18.2227 13.8321 18.1158 13.5853C18.0088 13.3384 17.8523 13.1161 17.6559 12.9322C17.4596 12.7482 17.2276 12.6065 16.9743 12.5158C16.7664 12.4414 16.5479 12.4026 16.3278 12.4008C16.2797 12.4004 16.2315 12.4017 16.1833 12.4049ZM14.9083 15.5132V13.2299H16.1667C16.65 13.2299 17.4583 13.3799 17.4583 14.3799C17.4583 15.1049 16.9833 15.5132 16.1667 15.5132H14.9083ZM16.1833 12.4049H14.5167C14.4623 12.4048 14.4085 12.4157 14.3585 12.4367C14.3084 12.4578 14.263 12.4886 14.2249 12.5274C14.1869 12.5662 14.157 12.6122 14.137 12.6627C14.117 12.7132 14.1072 12.7672 14.1083 12.8215V15.9215C14.1083 16.0298 14.1514 16.1337 14.2279 16.2103C14.3045 16.2868 14.4084 16.3299 14.5167 16.3299H16.1833C16.2315 16.333 16.2797 16.3344 16.3278 16.3339C16.5479 16.3321 16.7664 16.2933 16.9743 16.2189C17.2276 16.1282 17.4596 15.9865 17.6559 15.8025C17.8523 15.6186 18.0088 15.3963 18.1158 15.1494C18.2227 14.9026 18.278 14.6364 18.278 14.3674C18.278 14.0983 18.2227 13.8321 18.1158 13.5853C18.0088 13.3384 17.8523 13.1161 17.6559 12.9322C17.4596 12.7482 17.2276 12.6065 16.9743 12.5158C16.7664 12.4414 16.5479 12.4026 16.3278 12.4008C16.2797 12.4004 16.2315 12.4017 16.1833 12.4049ZM14.9083 15.5132V13.2299H16.1667C16.65 13.2299 17.4583 13.3799 17.4583 14.3799C17.4583 15.1049 16.9833 15.5132 16.1667 15.5132H14.9083ZM16.1833 12.4049H14.5167C14.4623 12.4048 14.4085 12.4157 14.3585 12.4367C14.3084 12.4578 14.263 12.4886 14.2249 12.5274C14.1869 12.5662 14.157 12.6122 14.137 12.6627C14.117 12.7132 14.1072 12.7672 14.1083 12.8215V15.9215C14.1083 16.0298 14.1514 16.1337 14.2279 16.2103C14.3045 16.2868 14.4084 16.3299 14.5167 16.3299H16.1833C16.2315 16.333 16.2797 16.3344 16.3278 16.3339C16.5479 16.3321 16.7664 16.2933 16.9743 16.2189C17.2276 16.1282 17.4596 15.9865 17.6559 15.8025C17.8523 15.6186 18.0088 15.3963 18.1158 15.1494C18.2227 14.9026 18.278 14.6364 18.278 14.3674C18.278 14.0983 18.2227 13.8321 18.1158 13.5853C18.0088 13.3384 17.8523 13.1161 17.6559 12.9322C17.4596 12.7482 17.2276 12.6065 16.9743 12.5158C16.7664 12.4414 16.5479 12.4026 16.3278 12.4008C16.2797 12.4004 16.2315 12.4017 16.1833 12.4049ZM14.9083 15.5132V13.2299H16.1667C16.65 13.2299 17.4583 13.3799 17.4583 14.3799C17.4583 15.1049 16.9833 15.5132 16.1667 15.5132H14.9083ZM16.1833 12.4049H14.5167C14.4623 12.4048 14.4085 12.4157 14.3585 12.4367C14.3084 12.4578 14.263 12.4886 14.2249 12.5274C14.1869 12.5662 14.157 12.6122 14.137 12.6627C14.117 12.7132 14.1072 12.7672 14.1083 12.8215V15.9215C14.1083 16.0298 14.1514 16.1337 14.2279 16.2103C14.3045 16.2868 14.4084 16.3299 14.5167 16.3299H16.1833C16.2315 16.333 16.2797 16.3344 16.3278 16.3339C16.5479 16.3321 16.7664 16.2933 16.9743 16.2189C17.2276 16.1282 17.4596 15.9865 17.6559 15.8025C17.8523 15.6186 18.0088 15.3963 18.1158 15.1494C18.2227 14.9026 18.278 14.6364 18.278 14.3674C18.278 14.0983 18.2227 13.8321 18.1158 13.5853C18.0088 13.3384 17.8523 13.1161 17.6559 12.9322C17.4596 12.7482 17.2276 12.6065 16.9743 12.5158C16.7664 12.4414 16.5479 12.4026 16.3278 12.4008C16.2797 12.4004 16.2315 12.4017 16.1833 12.4049ZM14.9083 15.5132V13.2299H16.1667C16.65 13.2299 17.4583 13.3799 17.4583 14.3799C17.4583 15.1049 16.9833 15.5132 16.1667 15.5132H14.9083ZM16.1833 12.4049H14.5167C14.4623 12.4048 14.4085 12.4157 14.3585 12.4367C14.3084 12.4578 14.263 12.4886 14.2249 12.5274C14.1869 12.5662 14.157 12.6122 14.137 12.6627C14.117 12.7132 14.1072 12.7672 14.1083 12.8215V15.9215C14.1083 16.0298 14.1514 16.1337 14.2279 16.2103C14.3045 16.2868 14.4084 16.3299 14.5167 16.3299H16.1833C16.2315 16.333 16.2797 16.3344 16.3278 16.3339C16.5479 16.3321 16.7664 16.2933 16.9743 16.2189C17.2276 16.1282 17.4596 15.9865 17.6559 15.8025C17.8523 15.6186 18.0088 15.3963 18.1158 15.1494C18.2227 14.9026 18.278 14.6364 18.278 14.3674C18.278 14.0983 18.2227 13.8321 18.1158 13.5853C18.0088 13.3384 17.8523 13.1161 17.6559 12.9322C17.4596 12.7482 17.2276 12.6065 16.9743 12.5158C16.7664 12.4414 16.5479 12.4026 16.3278 12.4008C16.2797 12.4004 16.2315 12.4017 16.1833 12.4049ZM14.9083 15.5132V13.2299H16.1667C16.65 13.2299 17.4583 13.3799 17.4583 14.3799C17.4583 15.1049 16.9833 15.5132 16.1667 15.5132H14.9083ZM16.1833 12.4049H14.5167C14.4623 12.4048 14.4085 12.4157 14.3585 12.4367C14.3084 12.4578 14.263 12.4886 14.2249 12.5274C14.1869 12.5662 14.157 12.6122 14.137 12.6627C14.117 12.7132 14.1072 12.7672 14.1083 12.8215V15.9215C14.1083 16.0298 14.1514 16.1337 14.2279 16.2103C14.3045 16.2868 14.4084 16.3299 14.5167 16.3299H16.1833C16.2315 16.333 16.2797 16.3344 16.3278 16.3339C16.5479 16.3321 16.7664 16.2933 16.9743 16.2189C17.2276 16.1282 17.4596 15.9865 17.6559 15.8025C17.8523 15.6186 18.0088 15.3963 18.1158 15.1494C18.2227 14.9026 18.278 14.6364 18.278 14.3674C18.278 14.0983 18.2227 13.8321 18.1158 13.5853C18.0088 13.3384 17.8523 13.1161 17.6559 12.9322C17.4596 12.7482 17.2276 12.6065 16.9743 12.5158C16.7664 12.4414 16.5479 12.4026 16.3278 12.4008C16.2797 12.4004 16.2315 12.4017 16.1833 12.4049ZM14.9083 15.5132V13.2299H16.1667C16.65 13.2299 17.4583 13.3799 17.4583 14.3799C17.4583 15.1049 16.9833 15.5132 16.1667 15.5132H14.9083ZM16.1833 12.4049H14.5167C14.4623 12.4048 14.4085 12.4157 14.3585 12.4367C14.3084 12.4578 14.263 12.4886 14.2249 12.5274C14.1869 12.5662 14.157 12.6122 14.137 12.6627C14.117 12.7132 14.1072 12.7672 14.1083 12.8215V15.9215C14.1083 16.0298 14.1514 16.1337 14.2279 16.2103C14.3045 16.2868 14.4084 16.3299 14.5167 16.3299H16.1833C16.2315 16.333 16.2797 16.3344 16.3278 16.3339C16.5479 16.3321 16.7664 16.2933 16.9743 16.2189C17.2276 16.1282 17.4596 15.9865 17.6559 15.8025C17.8523 15.6186 18.0088 15.3963 18.1158 15.1494C18.2227 14.9026 18.278 14.6364 18.278 14.3674C18.278 14.0983 18.2227 13.8321 18.1158 13.5853C18.0088 13.3384 17.8523 13.1161 17.6559 12.9322C17.4596 12.7482 17.2276 12.6065 16.9743 12.5158C16.7664 12.4414 16.5479 12.4026 16.3278 12.4008C16.2797 12.4004 16.2315 12.4017 16.1833 12.4049ZM14.9083 15.5132V13.2299H16.1667C16.65 13.2299 17.4583 13.3799 17.4583 14.3799C17.4583 15.1049 16.9833 15.5132 16.1667 15.5132H14.9083ZM16.1833 12.4049H14.5167C14.4623 12.4048 14.4085 12.4157 14.3585 12.4367C14.3084 12.4578 14.263 12.4886 14.2249 12.5274C14.1869 12.5662 14.157 12.6122 14.137 12.6627C14.117 12.7132 14.1072 12.7672 14.1083 12.8215V15.9215C14.1083 16.0298 14.1514 16.1337 14.2279 16.2103C14.3045 16.2868 14.4084 16.3299 14.5167 16.3299H16.1833C16.2315 16.333 16.2797 16.3344 16.3278 16.3339C16.5479 16.3321 16.7664 16.2933 16.9743 16.2189C17.2276 16.1282 17.4596 15.9865 17.6559 15.8025C17.8523 15.6186 18.0088 15.3963 18.1158 15.1494C18.2227 14.9026 18.278 14.6364 18.278 14.3674C18.278 14.0983 18.2227 13.8321 18.1158 13.5853C18.0088 13.3384 17.8523 13.1161 17.6559 12.9322C17.4596 12.7482 17.2276 12.6065 16.9743 12.5158C16.7664 12.4414 16.5479 12.4026 16.3278 12.4008C16.2797 12.4004 16.2315 12.4017 16.1833 12.4049ZM14.9083 15.5132V13.2299H16.1667C16.65 13.2299 17.4583 13.3799 17.4583 14.3799C17.4583 15.1049 16.9833 15.5132 16.1667 15.5132H14.9083ZM16.1833 12.4049H14.5167C14.4623 12.4048 14.4085 12.4157 14.3585 12.4367C14.3084 12.4578 14.263 12.4886 14.2249 12.5274C14.1869 12.5662 14.157 12.6122 14.137 12.6627C14.117 12.7132 14.1072 12.7672 14.1083 12.8215V15.9215C14.1083 16.0298 14.1514 16.1337 14.2279 16.2103C14.3045 16.2868 14.4084 16.3299 14.5167 16.3299H16.1833C16.2315 16.333 16.2797 16.3344 16.3278 16.3339C16.5479 16.3321 16.7664 16.2933 16.9743 16.2189C17.2276 16.1282 17.4596 15.9865 17.6559 15.8025C17.8523 15.6186 18.0088 15.3963 18.1158 15.1494C18.2227 14.9026 18.278 14.6364 18.278 14.3674C18.278 14.0983 18.2227 13.8321 18.1158 13.5853C18.0088 13.3384 17.8523 13.1161 17.6559 12.9322C17.4596 12.7482 17.2276 12.6065 16.9743 12.5158C16.7664 12.4414 16.5479 12.4026 16.3278 12.4008C16.2797 12.4004 16.2315 12.4017 16.1833 12.4049ZM14.9083 15.5132V13.2299H16.1667C16.65 13.2299 17.4583 13.3799 17.4583 14.3799C17.4583 15.1049 16.9833 15.5132 16.1667 15.5132H14.9083ZM16.1833 12.4049H14.5167C14.4623 12.4048 14.4085 12.4157 14.3585 12.4367C14.3084 12.4578 14.263 12.4886 14.2249 12.5274C14.1869 12.5662 14.157 12.6122 14.137 12.6627C14.117 12.7132 14.1072 12.7672 14.1083 12.8215V15.9215C14.1083 16.0298 14.1514 16.1337 14.2279 16.2103C14.3045 16.2868 14.4084 16.3299 14.5167 16.3299H16.1833C16.2315 16.333 16.2797 16.3344 16.3278 16.3339C16.5479 16.3321 16.7664 16.2933 16.9743 16.2189C17.2276 16.1282 17.4596 15.9865 17.6559 15.8025C17.8523 15.6186 18.0088 15.3963 18.1158 15.1494C18.2227 14.9026 18.278 14.6364 18.278 14.3674C18.278 14.0983 18.2227 13.8321 18.1158 13.5853C18.0088 13.3384 17.8523 13.1161 17.6559 12.9322C17.4596 12.7482 17.2276 12.6065 16.9743 12.5158C16.7664 12.4414 16.5479 12.4026 16.3278 12.4008C16.2797 12.4004 16.2315 12.4017 16.1833 12.4049ZM14.9083 15.5132V13.2299H16.1667C16.65 13.2299 17.4583 13.3799 17.4583 14.3799C17.4583 15.1049 16.9833 15.5132 16.1667 15.5132H14.9083ZM16.1833 12.4049H14.5167C14.4623 12.4048 14.4085 12.4157 14.3585 12.4367C14.3084 12.4578 14.263 12.4886 14.2249 12.5274C14.1869 12.5662 14.157 12.6122 14.137 12.6627C14.117 12.7132 14.1072 12.7672 14.1083 12.8215V15.9215C14.1083 16.0298 14.1514 16.1337 14.2279 16.2103C14.3045 16.2868 14.4084 16.3299 14.5167 16.3299H16.1833C16.2315 16.333 16.2797 16.3344 16.3278 16.3339C16.5479 16.3321 16.7664 16.2933 16.9743 16.2189C17.2276 16.1282 17.4596 15.9865 17.6559 15.8025C17.8523 15.6186 18.0088 15.3963 18.1158 15.1494C18.2227 14.9026 18.278 14.6364 18.278 14.3674C18.278 14.0983 18.2227 13.8321 18.1158 13.5853C18.0088 13.3384 17.8523 13.1161 17.6559 12.9322C17.4596 12.7482 17.2276 12.6065 16.9743 12.5158C16.7664 12.4414 16.5479 12.4026 16.3278 12.4008C16.2797 12.4004 16.2315 12.4017 16.1833 12.4049ZM14.9083 15.5132V13.2299H16.1667C16.65 13.2299 17.4583 13.3799 17.4583 14.3799C17.4583 15.1049 16.9833 15.5132 16.1667 15.5132H14.9083ZM16.1833 12.4049H14.5167C14.4623 12.4048 14.4085 12.4157 14.3585 12.4367C14.3084 12.4578 14.263 12.4886 14.2249 12.5274C14.1869 12.5662 14.157 12.6122 14.137 12.6627C14.117 12.7132 14.1072 12.7672 14.1083 12.8215V15.9215C14.1083 16.0298 14.1514 16.1337 14.2279 16.2103C14.3045 16.2868 14.4084 16.3299 14.5167 16.3299H16.1833C16.2315 16.333 16.2797 16.3344 16.3278 16.3339C16.5479 16.3321 16.7664 16.2933 16.9743 16.2189C17.2276 16.1282 17.4596 15.9865 17.6559 15.8025C17.8523 15.6186 18.0088 15.3963 18.1158 15.1494C18.2227 14.9026 18.278 14.6364 18.278 14.3674C18.278 14.0983 18.2227 13.8321 18.1158 13.5853C18.0088 13.3384 17.8523 13.1161 17.6559 12.9322C17.4596 12.7482 17.2276 12.6065 16.9743 12.5158C16.7664 12.4414 16.5479 12.4026 16.3278 12.4008C16.2797 12.4004 16.2315 12.4017 16.1833 12.4049ZM14.9083 15.5132V13.2299H16.1667C16.65 13.2299 17.4583 13.3799 17.4583 14.3799C17.4583 15.1049 16.9833 15.5132 16.1667 15.5132H14.9083ZM16.1833 12.4049H14.5167C14.4623 12.4048 14.4085 12.4157 14.3585 12.4367C14.3084 12.4578 14.263 12.4886 14.2249 12.5274C14.1869 12.5662 14.157 12.6122 14.137 12.6627C14.117 12.7132 14.1072 12.7672 14.1083 12.8215V15.9215C14.1083 16.0298 14.1514 16.1337 14.2279 16.2103C14.3045 16.2868 14.4084 16.3299 14.5167 16.3299H16.1833C16.2315 16.333 16.2797 16.3344 16.3278 16.3339C16.5479 16.3321 16.7664 16.2933 16.9743 16.2189C17.2276 16.1282 17.4596 15.9865 17.6559 15.8025C17.8523 15.6186 18.0088 15.3963 18.1158 15.1494C18.2227 14.9026 18.278 14.6364 18.278 14.3674C18.278 14.0983 18.2227 13.8321 18.1158 13.5853C18.0088 13.3384 17.8523 13.1161 17.6559 12.9322C17.4596 12.7482 17.2276 12.6065 16.9743 12.5158C16.7664 12.4414 16.5479 12.4026 16.3278 12.4008C16.2797 12.4004 16.2315 12.4017 16.1833 12.4049ZM14.9083 15.5132V13.2299H16.1667C16.65 13.2299 17.4583 13.3799 17.4583 14.3799C17.4583 15.1049 16.9833 15.5132 16.1667 15.5132H14.9083ZM16.1833 12.4049H14.5167C14.4623 12.4048 14.4085 12.4157 14.3585 12.4367C14.3084 12.4578 14.263 12.4886 14.2249 12.5274C14.1869 12.5662 14.157 12.6122 14.137 12.6627C14.117 12.7132 14.1072 12.7672 14.1083 12.8215V15.9215C14.1083 16.0298 14.1514 16.1337 14.2279 16.2103C14.3045 16.2868 14.4084 16.3299 14.5167 16.3299H16.1833C16.2315 16.333 16.2797 16.3344 16.3278 16.3339C16.5479 16.3321 16.7664 16.2933 16.9743 16.2189C17.2276 16.1282 17.4596 15.9865 17.6559 15.8025C17.8523 15.6186 18.0088 15.3963 18.1158 15.1494C18.2227 14.9026 18.278 14.6364 18.278 14.3674C18.278 14.0983 18.2227 13.8321 18.1158 13.5853C18.0088 13.3384 17.8523 13.1161 17.6559 12.9322C17.4596 12.7482 17.2276 12.6065 16.9743 12.5158C16.7664 12.4414 16.5479 12.4026 16.3278 12.4008C16.2797 12.4004 16.2315 12.4017 16.1833 12.4049ZM14.9083 15.5132V13.2299H16.1667C16.65 13.2299 17.4583 13.3799 17.4583 14.3799C17.4583 15.1049 16.9833 15.5132 16.1667 15.5132H14.9083ZM16.1833 12.4049H14.5167C14.4623 12.4048 14.4085 12.4157 14.3585 12.4367C14.3084 12.4578 14.263 12.4886 14.2249 12.5274C14.1869 12.5662 14.157 12.6122 14.137 12.6627C14.117 12.7132 14.1072 12.7672 14.1083 12.8215V15.9215C14.1083 16.0298 14.1514 16.1337 14.2279 16.2103C14.3045 16.2868 14.4084 16.3299 14.5167 16.3299H16.1833C16.2315 16.333 16.2797 16.3344 16.3278 16.3339C16.5479 16.3321 16.7664 16.2933 16.9743 16.2189C17.2276 16.1282 17.4596 15.9865 17.6559 15.8025C17.8523 15.6186 18.0088 15.3963 18.1158 15.1494C18.2227 14.9026 18.278 14.6364 18.278 14.3674C18.278 14.0983 18.2227 13.8321 18.1158 13.5853C18.0088 13.3384 17.8523 13.1161 17.6559 12.9322C17.4596 12.7482 17.2276 12.6065 16.9743 12.5158C16.7664 12.4414 16.5479 12.4026 16.3278 12.4008C16.2797 12.4004 16.2315 12.4017 16.1833 12.4049ZM14.9083 15.5132V13.2299H16.1667C16.65 13.2299 17.4583 13.3799 17.4583 14.3799C17.4583 15.1049 16.9833 15.5132 16.1667 15.5132H14.9083ZM16.1833 12.4049H14.5167C14.4623 12.4048 14.4085 12.4157 14.3585 12.4367C14.3084 12.4578 14.263 12.4886 14.2249 12.5274C14.1869 12.5662 14.157 12.6122 14.137 12.6627C14.117 12.7132 14.1072 12.7672 14.1083 12.8215V15.9215C14.1083 16.0298 14.1514 16.1337 14.2279 16.2103C14.3045 16.2868 14.4084 16.3299 14.5167 16.3299H16.1833C16.2315 16.333 16.2797 16.3344 16.3278 16.3339C16.5479 16.3321 16.7664 16.2933 16.9743 16.2189C17.2276 16.1282 17.4596 15.9865 17.6559 15.8025C17.8523 15.6186 18.0088 15.3963 18.1158 15.1494C18.2227 14.9026 18.278 14.6364 18.278 14.3674C18.278 14.0983 18.2227 13.8321 18.1158 13.5853C18.0088 13.3384 17.8523 13.1161 17.6559 12.9322C17.4596 12.7482 17.2276 12.6065 16.9743 12.5158C16.7664 12.4414 16.5479 12.4026 16.3278 12.4008C16.2797 12.4004 16.2315 12.4017 16.1833 12.4049ZM14.9083 15.5132V13.2299H16.1667C16.65 13.2299 17.4583 13.3799 17.4583 14.3799C17.4583 15.1049 16.9833 15.5132 16.1667 15.5132H14.9083ZM16.425 10.5715H12.4083C12.3 10.5715 12.1962 10.6145 12.1196 10.6911C12.043 10.7677 12 10.8716 12 10.9799V21.8382C12 21.9465 12.043 22.0503 12.1196 22.1269C12.1962 22.2035 12.3 22.2465 12.4083 22.2465H14.525C14.6289 22.2401 14.7265 22.1943 14.7977 22.1184C14.869 22.0425 14.9085 21.9423 14.9083 21.8382V18.1549H16.4417C16.9609 18.1936 17.4825 18.1228 17.9726 17.9471C18.4628 17.7714 18.9105 17.4946 19.2868 17.1348C19.6632 16.775 19.9597 16.3401 20.1572 15.8583C20.3547 15.3765 20.4488 14.8586 20.4333 14.3382C20.4415 13.8234 20.3426 13.3125 20.143 12.838C19.9434 12.3634 19.6473 11.9355 19.2736 11.5813C18.8998 11.2272 18.4566 10.9546 17.972 10.7808C17.4874 10.6069 16.9719 10.5357 16.4583 10.5715H16.425ZM16.425 17.3382H14.5167C14.4084 17.3382 14.3045 17.3812 14.2279 17.4578C14.1514 17.5344 14.1083 17.6382 14.1083 17.7465V21.4215H12.8083V11.4215H16.4583C16.8615 11.3867 17.2674 11.4364 17.6502 11.5675C18.033 11.6985 18.3843 11.908 18.6815 12.1825C18.9788 12.457 19.2155 12.7905 19.3765 13.1617C19.5375 13.5329 19.6193 13.9336 19.6167 14.3382C19.6312 14.7497 19.5582 15.1597 19.4024 15.5409C19.2466 15.9221 19.0117 16.2659 18.7131 16.5495C18.4145 16.8331 18.0591 17.05 17.6704 17.186C17.2817 17.322 16.8686 17.3738 16.4583 17.3382H16.425ZM16.1833 12.4049H14.5167C14.4623 12.4048 14.4085 12.4157 14.3585 12.4367C14.3084 12.4578 14.263 12.4886 14.2249 12.5274C14.1869 12.5662 14.157 12.6122 14.137 12.6627C14.117 12.7132 14.1072 12.7672 14.1083 12.8215V15.9215C14.1083 16.0298 14.1514 16.1337 14.2279 16.2103C14.3045 16.2868 14.4084 16.3299 14.5167 16.3299H16.1833C16.2315 16.333 16.2797 16.3344 16.3278 16.3339C16.5479 16.3321 16.7664 16.2933 16.9743 16.2189C17.2276 16.1282 17.4596 15.9865 17.6559 15.8025C17.8523 15.6186 18.0088 15.3963 18.1158 15.1494C18.2227 14.9026 18.278 14.6364 18.278 14.3674C18.278 14.0983 18.2227 13.8321 18.1158 13.5853C18.0088 13.3384 17.8523 13.1161 17.6559 12.9322C17.4596 12.7482 17.2276 12.6065 16.9743 12.5158C16.7664 12.4414 16.5479 12.4026 16.3278 12.4008C16.2797 12.4004 16.2315 12.4017 16.1833 12.4049ZM14.9083 15.5132V13.2299H16.1667C16.65 13.2299 17.4583 13.3799 17.4583 14.3799C17.4583 15.1049 16.9833 15.5132 16.1667 15.5132H14.9083ZM16.1833 12.4049H14.5167C14.4623 12.4048 14.4085 12.4157 14.3585 12.4367C14.3084 12.4578 14.263 12.4886 14.2249 12.5274C14.1869 12.5662 14.157 12.6122 14.137 12.6627C14.117 12.7132 14.1072 12.7672 14.1083 12.8215V15.9215C14.1083 16.0298 14.1514 16.1337 14.2279 16.2103C14.3045 16.2868 14.4084 16.3299 14.5167 16.3299H16.1833C16.2315 16.333 16.2797 16.3344 16.3278 16.3339C16.5479 16.3321 16.7664 16.2933 16.9743 16.2189C17.2276 16.1282 17.4596 15.9865 17.6559 15.8025C17.8523 15.6186 18.0088 15.3963 18.1158 15.1494C18.2227 14.9026 18.278 14.6364 18.278 14.3674C18.278 14.0983 18.2227 13.8321 18.1158 13.5853C18.0088 13.3384 17.8523 13.1161 17.6559 12.9322C17.4596 12.7482 17.2276 12.6065 16.9743 12.5158C16.7664 12.4414 16.5479 12.4026 16.3278 12.4008C16.2797 12.4004 16.2315 12.4017 16.1833 12.4049ZM14.9083 15.5132V13.2299H16.1667C16.65 13.2299 17.4583 13.3799 17.4583 14.3799C17.4583 15.1049 16.9833 15.5132 16.1667 15.5132H14.9083ZM16.1833 12.4049H14.5167C14.4623 12.4048 14.4085 12.4157 14.3585 12.4367C14.3084 12.4578 14.263 12.4886 14.2249 12.5274C14.1869 12.5662 14.157 12.6122 14.137 12.6627C14.117 12.7132 14.1072 12.7672 14.1083 12.8215V15.9215C14.1083 16.0298 14.1514 16.1337 14.2279 16.2103C14.3045 16.2868 14.4084 16.3299 14.5167 16.3299H16.1833C16.2315 16.333 16.2797 16.3344 16.3278 16.3339C16.5479 16.3321 16.7664 16.2933 16.9743 16.2189C17.2276 16.1282 17.4596 15.9865 17.6559 15.8025C17.8523 15.6186 18.0088 15.3963 18.1158 15.1494C18.2227 14.9026 18.278 14.6364 18.278 14.3674C18.278 14.0983 18.2227 13.8321 18.1158 13.5853C18.0088 13.3384 17.8523 13.1161 17.6559 12.9322C17.4596 12.7482 17.2276 12.6065 16.9743 12.5158C16.7664 12.4414 16.5479 12.4026 16.3278 12.4008C16.2797 12.4004 16.2315 12.4017 16.1833 12.4049ZM14.9083 15.5132V13.2299H16.1667C16.65 13.2299 17.4583 13.3799 17.4583 14.3799C17.4583 15.1049 16.9833 15.5132 16.1667 15.5132H14.9083ZM16.1833 12.4049H14.5167C14.4623 12.4048 14.4085 12.4157 14.3585 12.4367C14.3084 12.4578 14.263 12.4886 14.2249 12.5274C14.1869 12.5662 14.157 12.6122 14.137 12.6627C14.117 12.7132 14.1072 12.7672 14.1083 12.8215V15.9215C14.1083 16.0298 14.1514 16.1337 14.2279 16.2103C14.3045 16.2868 14.4084 16.3299 14.5167 16.3299H16.1833C16.2315 16.333 16.2797 16.3344 16.3278 16.3339C16.5479 16.3321 16.7664 16.2933 16.9743 16.2189C17.2276 16.1282 17.4596 15.9865 17.6559 15.8025C17.8523 15.6186 18.0088 15.3963 18.1158 15.1494C18.2227 14.9026 18.278 14.6364 18.278 14.3674C18.278 14.0983 18.2227 13.8321 18.1158 13.5853C18.0088 13.3384 17.8523 13.1161 17.6559 12.9322C17.4596 12.7482 17.2276 12.6065 16.9743 12.5158C16.7664 12.4414 16.5479 12.4026 16.3278 12.4008C16.2797 12.4004 16.2315 12.4017 16.1833 12.4049ZM14.9083 15.5132V13.2299H16.1667C16.65 13.2299 17.4583 13.3799 17.4583 14.3799C17.4583 15.1049 16.9833 15.5132 16.1667 15.5132H14.9083ZM16.1833 12.4049H14.5167C14.4623 12.4048 14.4085 12.4157 14.3585 12.4367C14.3084 12.4578 14.263 12.4886 14.2249 12.5274C14.1869 12.5662 14.157 12.6122 14.137 12.6627C14.117 12.7132 14.1072 12.7672 14.1083 12.8215V15.9215C14.1083 16.0298 14.1514 16.1337 14.2279 16.2103C14.3045 16.2868 14.4084 16.3299 14.5167 16.3299H16.1833C16.2315 16.333 16.2797 16.3344 16.3278 16.3339C16.5479 16.3321 16.7664 16.2933 16.9743 16.2189C17.2276 16.1282 17.4596 15.9865 17.6559 15.8025C17.8523 15.6186 18.0088 15.3963 18.1158 15.1494C18.2227 14.9026 18.278 14.6364 18.278 14.3674C18.278 14.0983 18.2227 13.8321 18.1158 13.5853C18.0088 13.3384 17.8523 13.1161 17.6559 12.9322C17.4596 12.7482 17.2276 12.6065 16.9743 12.5158C16.7664 12.4414 16.5479 12.4026 16.3278 12.4008C16.2797 12.4004 16.2315 12.4017 16.1833 12.4049ZM14.9083 15.5132V13.2299H16.1667C16.65 13.2299 17.4583 13.3799 17.4583 14.3799C17.4583 15.1049 16.9833 15.5132 16.1667 15.5132H14.9083ZM16.1833 12.4049H14.5167C14.4623 12.4048 14.4085 12.4157 14.3585 12.4367C14.3084 12.4578 14.263 12.4886 14.2249 12.5274C14.1869 12.5662 14.157 12.6122 14.137 12.6627C14.117 12.7132 14.1072 12.7672 14.1083 12.8215V15.9215C14.1083 16.0298 14.1514 16.1337 14.2279 16.2103C14.3045 16.2868 14.4084 16.3299 14.5167 16.3299H16.1833C16.2315 16.333 16.2797 16.3344 16.3278 16.3339C16.5479 16.3321 16.7664 16.2933 16.9743 16.2189C17.2276 16.1282 17.4596 15.9865 17.6559 15.8025C17.8523 15.6186 18.0088 15.3963 18.1158 15.1494C18.2227 14.9026 18.278 14.6364 18.278 14.3674C18.278 14.0983 18.2227 13.8321 18.1158 13.5853C18.0088 13.3384 17.8523 13.1161 17.6559 12.9322C17.4596 12.7482 17.2276 12.6065 16.9743 12.5158C16.7664 12.4414 16.5479 12.4026 16.3278 12.4008C16.2797 12.4004 16.2315 12.4017 16.1833 12.4049ZM14.9083 15.5132V13.2299H16.1667C16.65 13.2299 17.4583 13.3799 17.4583 14.3799C17.4583 15.1049 16.9833 15.5132 16.1667 15.5132H14.9083ZM16.1833 12.4049H14.5167C14.4623 12.4048 14.4085 12.4157 14.3585 12.4367C14.3084 12.4578 14.263 12.4886 14.2249 12.5274C14.1869 12.5662 14.157 12.6122 14.137 12.6627C14.117 12.7132 14.1072 12.7672 14.1083 12.8215V15.9215C14.1083 16.0298 14.1514 16.1337 14.2279 16.2103C14.3045 16.2868 14.4084 16.3299 14.5167 16.3299H16.1833C16.2315 16.333 16.2797 16.3344 16.3278 16.3339C16.5479 16.3321 16.7664 16.2933 16.9743 16.2189C17.2276 16.1282 17.4596 15.9865 17.6559 15.8025C17.8523 15.6186 18.0088 15.3963 18.1158 15.1494C18.2227 14.9026 18.278 14.6364 18.278 14.3674C18.278 14.0983 18.2227 13.8321 18.1158 13.5853C18.0088 13.3384 17.8523 13.1161 17.6559 12.9322C17.4596 12.7482 17.2276 12.6065 16.9743 12.5158C16.7664 12.4414 16.5479 12.4026 16.3278 12.4008C16.2797 12.4004 16.2315 12.4017 16.1833 12.4049ZM14.9083 15.5132V13.2299H16.1667C16.65 13.2299 17.4583 13.3799 17.4583 14.3799C17.4583 15.1049 16.9833 15.5132 16.1667 15.5132H14.9083ZM16.1833 12.4049H14.5167C14.4623 12.4048 14.4085 12.4157 14.3585 12.4367C14.3084 12.4578 14.263 12.4886 14.2249 12.5274C14.1869 12.5662 14.157 12.6122 14.137 12.6627C14.117 12.7132 14.1072 12.7672 14.1083 12.8215V15.9215C14.1083 16.0298 14.1514 16.1337 14.2279 16.2103C14.3045 16.2868 14.4084 16.3299 14.5167 16.3299H16.1833C16.2315 16.333 16.2797 16.3344 16.3278 16.3339C16.5479 16.3321 16.7664 16.2933 16.9743 16.2189C17.2276 16.1282 17.4596 15.9865 17.6559 15.8025C17.8523 15.6186 18.0088 15.3963 18.1158 15.1494C18.2227 14.9026 18.278 14.6364 18.278 14.3674C18.278 14.0983 18.2227 13.8321 18.1158 13.5853C18.0088 13.3384 17.8523 13.1161 17.6559 12.9322C17.4596 12.7482 17.2276 12.6065 16.9743 12.5158C16.7664 12.4414 16.5479 12.4026 16.3278 12.4008C16.2797 12.4004 16.2315 12.4017 16.1833 12.4049ZM14.9083 15.5132V13.2299H16.1667C16.65 13.2299 17.4583 13.3799 17.4583 14.3799C17.4583 15.1049 16.9833 15.5132 16.1667 15.5132H14.9083ZM16.1833 12.4049H14.5167C14.4623 12.4048 14.4085 12.4157 14.3585 12.4367C14.3084 12.4578 14.263 12.4886 14.2249 12.5274C14.1869 12.5662 14.157 12.6122 14.137 12.6627C14.117 12.7132 14.1072 12.7672 14.1083 12.8215V15.9215C14.1083 16.0298 14.1514 16.1337 14.2279 16.2103C14.3045 16.2868 14.4084 16.3299 14.5167 16.3299H16.1833C16.2315 16.333 16.2797 16.3344 16.3278 16.3339C16.5479 16.3321 16.7664 16.2933 16.9743 16.2189C17.2276 16.1282 17.4596 15.9865 17.6559 15.8025C17.8523 15.6186 18.0088 15.3963 18.1158 15.1494C18.2227 14.9026 18.278 14.6364 18.278 14.3674C18.278 14.0983 18.2227 13.8321 18.1158 13.5853C18.0088 13.3384 17.8523 13.1161 17.6559 12.9322C17.4596 12.7482 17.2276 12.6065 16.9743 12.5158C16.7664 12.4414 16.5479 12.4026 16.3278 12.4008C16.2797 12.4004 16.2315 12.4017 16.1833 12.4049ZM14.9083 15.5132V13.2299H16.1667C16.65 13.2299 17.4583 13.3799 17.4583 14.3799C17.4583 15.1049 16.9833 15.5132 16.1667 15.5132H14.9083ZM16.1833 12.4049H14.5167C14.4623 12.4048 14.4085 12.4157 14.3585 12.4367C14.3084 12.4578 14.263 12.4886 14.2249 12.5274C14.1869 12.5662 14.157 12.6122 14.137 12.6627C14.117 12.7132 14.1072 12.7672 14.1083 12.8215V15.9215C14.1083 16.0298 14.1514 16.1337 14.2279 16.2103C14.3045 16.2868 14.4084 16.3299 14.5167 16.3299H16.1833C16.2315 16.333 16.2797 16.3344 16.3278 16.3339C16.5479 16.3321 16.7664 16.2933 16.9743 16.2189C17.2276 16.1282 17.4596 15.9865 17.6559 15.8025C17.8523 15.6186 18.0088 15.3963 18.1158 15.1494C18.2227 14.9026 18.278 14.6364 18.278 14.3674C18.278 14.0983 18.2227 13.8321 18.1158 13.5853C18.0088 13.3384 17.8523 13.1161 17.6559 12.9322C17.4596 12.7482 17.2276 12.6065 16.9743 12.5158C16.7664 12.4414 16.5479 12.4026 16.3278 12.4008C16.2797 12.4004 16.2315 12.4017 16.1833 12.4049ZM14.9083 15.5132V13.2299H16.1667C16.65 13.2299 17.4583 13.3799 17.4583 14.3799C17.4583 15.1049 16.9833 15.5132 16.1667 15.5132H14.9083ZM16.1833 12.4049H14.5167C14.4623 12.4048 14.4085 12.4157 14.3585 12.4367C14.3084 12.4578 14.263 12.4886 14.2249 12.5274C14.1869 12.5662 14.157 12.6122 14.137 12.6627C14.117 12.7132 14.1072 12.7672 14.1083 12.8215V15.9215C14.1083 16.0298 14.1514 16.1337 14.2279 16.2103C14.3045 16.2868 14.4084 16.3299 14.5167 16.3299H16.1833C16.2315 16.333 16.2797 16.3344 16.3278 16.3339C16.5479 16.3321 16.7664 16.2933 16.9743 16.2189C17.2276 16.1282 17.4596 15.9865 17.6559 15.8025C17.8523 15.6186 18.0088 15.3963 18.1158 15.1494C18.2227 14.9026 18.278 14.6364 18.278 14.3674C18.278 14.0983 18.2227 13.8321 18.1158 13.5853C18.0088 13.3384 17.8523 13.1161 17.6559 12.9322C17.4596 12.7482 17.2276 12.6065 16.9743 12.5158C16.7664 12.4414 16.5479 12.4026 16.3278 12.4008C16.2797 12.4004 16.2315 12.4017 16.1833 12.4049ZM14.9083 15.5132V13.2299H16.1667C16.65 13.2299 17.4583 13.3799 17.4583 14.3799C17.4583 15.1049 16.9833 15.5132 16.1667 15.5132H14.9083ZM16.1833 12.4049H14.5167C14.4623 12.4048 14.4085 12.4157 14.3585 12.4367C14.3084 12.4578 14.263 12.4886 14.2249 12.5274C14.1869 12.5662 14.157 12.6122 14.137 12.6627C14.117 12.7132 14.1072 12.7672 14.1083 12.8215V15.9215C14.1083 16.0298 14.1514 16.1337 14.2279 16.2103C14.3045 16.2868 14.4084 16.3299 14.5167 16.3299H16.1833C16.2315 16.333 16.2797 16.3344 16.3278 16.3339C16.5479 16.3321 16.7664 16.2933 16.9743 16.2189C17.2276 16.1282 17.4596 15.9865 17.6559 15.8025C17.8523 15.6186 18.0088 15.3963 18.1158 15.1494C18.2227 14.9026 18.278 14.6364 18.278 14.3674C18.278 14.0983 18.2227 13.8321 18.1158 13.5853C18.0088 13.3384 17.8523 13.1161 17.6559 12.9322C17.4596 12.7482 17.2276 12.6065 16.9743 12.5158C16.7664 12.4414 16.5479 12.4026 16.3278 12.4008C16.2797 12.4004 16.2315 12.4017 16.1833 12.4049ZM14.9083 15.5132V13.2299H16.1667C16.65 13.2299 17.4583 13.3799 17.4583 14.3799C17.4583 15.1049 16.9833 15.5132 16.1667 15.5132H14.9083ZM16.1833 12.4049H14.5167C14.4623 12.4048 14.4085 12.4157 14.3585 12.4367C14.3084 12.4578 14.263 12.4886 14.2249 12.5274C14.1869 12.5662 14.157 12.6122 14.137 12.6627C14.117 12.7132 14.1072 12.7672 14.1083 12.8215V15.9215C14.1083 16.0298 14.1514 16.1337 14.2279 16.2103C14.3045 16.2868 14.4084 16.3299 14.5167 16.3299H16.1833C16.2315 16.333 16.2797 16.3344 16.3278 16.3339C16.5479 16.3321 16.7664 16.2933 16.9743 16.2189C17.2276 16.1282 17.4596 15.9865 17.6559 15.8025C17.8523 15.6186 18.0088 15.3963 18.1158 15.1494C18.2227 14.9026 18.278 14.6364 18.278 14.3674C18.278 14.0983 18.2227 13.8321 18.1158 13.5853C18.0088 13.3384 17.8523 13.1161 17.6559 12.9322C17.4596 12.7482 17.2276 12.6065 16.9743 12.5158C16.7664 12.4414 16.5479 12.4026 16.3278 12.4008C16.2797 12.4004 16.2315 12.4017 16.1833 12.4049ZM14.9083 15.5132V13.2299H16.1667C16.65 13.2299 17.4583 13.3799 17.4583 14.3799C17.4583 15.1049 16.9833 15.5132 16.1667 15.5132H14.9083ZM16.1833 12.4049H14.5167C14.4623 12.4048 14.4085 12.4157 14.3585 12.4367C14.3084 12.4578 14.263 12.4886 14.2249 12.5274C14.1869 12.5662 14.157 12.6122 14.137 12.6627C14.117 12.7132 14.1072 12.7672 14.1083 12.8215V15.9215C14.1083 16.0298 14.1514 16.1337 14.2279 16.2103C14.3045 16.2868 14.4084 16.3299 14.5167 16.3299H16.1833C16.2315 16.333 16.2797 16.3344 16.3278 16.3339C16.5479 16.3321 16.7664 16.2933 16.9743 16.2189C17.2276 16.1282 17.4596 15.9865 17.6559 15.8025C17.8523 15.6186 18.0088 15.3963 18.1158 15.1494C18.2227 14.9026 18.278 14.6364 18.278 14.3674C18.278 14.0983 18.2227 13.8321 18.1158 13.5853C18.0088 13.3384 17.8523 13.1161 17.6559 12.9322C17.4596 12.7482 17.2276 12.6065 16.9743 12.5158C16.7664 12.4414 16.5479 12.4026 16.3278 12.4008C16.2797 12.4004 16.2315 12.4017 16.1833 12.4049ZM14.9083 15.5132V13.2299H16.1667C16.65 13.2299 17.4583 13.3799 17.4583 14.3799C17.4583 15.1049 16.9833 15.5132 16.1667 15.5132H14.9083ZM16.1833 12.4049H14.5167C14.4623 12.4048 14.4085 12.4157 14.3585 12.4367C14.3084 12.4578 14.263 12.4886 14.2249 12.5274C14.1869 12.5662 14.157 12.6122 14.137 12.6627C14.117 12.7132 14.1072 12.7672 14.1083 12.8215V15.9215C14.1083 16.0298 14.1514 16.1337 14.2279 16.2103C14.3045 16.2868 14.4084 16.3299 14.5167 16.3299H16.1833C16.2315 16.333 16.2797 16.3344 16.3278 16.3339C16.5479 16.3321 16.7664 16.2933 16.9743 16.2189C17.2276 16.1282 17.4596 15.9865 17.6559 15.8025C17.8523 15.6186 18.0088 15.3963 18.1158 15.1494C18.2227 14.9026 18.278 14.6364 18.278 14.3674C18.278 14.0983 18.2227 13.8321 18.1158 13.5853C18.0088 13.3384 17.8523 13.1161 17.6559 12.9322C17.4596 12.7482 17.2276 12.6065 16.9743 12.5158C16.7664 12.4414 16.5479 12.4026 16.3278 12.4008C16.2797 12.4004 16.2315 12.4017 16.1833 12.4049ZM14.9083 15.5132V13.2299H16.1667C16.65 13.2299 17.4583 13.3799 17.4583 14.3799C17.4583 15.1049 16.9833 15.5132 16.1667 15.5132H14.9083ZM16.1833 12.4049H14.5167C14.4623 12.4048 14.4085 12.4157 14.3585 12.4367C14.3084 12.4578 14.263 12.4886 14.2249 12.5274C14.1869 12.5662 14.157 12.6122 14.137 12.6627C14.117 12.7132 14.1072 12.7672 14.1083 12.8215V15.9215C14.1083 16.0298 14.1514 16.1337 14.2279 16.2103C14.3045 16.2868 14.4084 16.3299 14.5167 16.3299H16.1833C16.2315 16.333 16.2797 16.3344 16.3278 16.3339C16.5479 16.3321 16.7664 16.2933 16.9743 16.2189C17.2276 16.1282 17.4596 15.9865 17.6559 15.8025C17.8523 15.6186 18.0088 15.3963 18.1158 15.1494C18.2227 14.9026 18.278 14.6364 18.278 14.3674C18.278 14.0983 18.2227 13.8321 18.1158 13.5853C18.0088 13.3384 17.8523 13.1161 17.6559 12.9322C17.4596 12.7482 17.2276 12.6065 16.9743 12.5158C16.7664 12.4414 16.5479 12.4026 16.3278 12.4008C16.2797 12.4004 16.2315 12.4017 16.1833 12.4049ZM14.9083 15.5132V13.2299H16.1667C16.65 13.2299 17.4583 13.3799 17.4583 14.3799C17.4583 15.1049 16.9833 15.5132 16.1667 15.5132H14.9083ZM16.1833 12.4049H14.5167C14.4623 12.4048 14.4085 12.4157 14.3585 12.4367C14.3084 12.4578 14.263 12.4886 14.2249 12.5274C14.1869 12.5662 14.157 12.6122 14.137 12.6627C14.117 12.7132 14.1072 12.7672 14.1083 12.8215V15.9215C14.1083 16.0298 14.1514 16.1337 14.2279 16.2103C14.3045 16.2868 14.4084 16.3299 14.5167 16.3299H16.1833C16.2315 16.333 16.2797 16.3344 16.3278 16.3339C16.5479 16.3321 16.7664 16.2933 16.9743 16.2189C17.2276 16.1282 17.4596 15.9865 17.6559 15.8025C17.8523 15.6186 18.0088 15.3963 18.1158 15.1494C18.2227 14.9026 18.278 14.6364 18.278 14.3674C18.278 14.0983 18.2227 13.8321 18.1158 13.5853C18.0088 13.3384 17.8523 13.1161 17.6559 12.9322C17.4596 12.7482 17.2276 12.6065 16.9743 12.5158C16.7664 12.4414 16.5479 12.4026 16.3278 12.4008C16.2797 12.4004 16.2315 12.4017 16.1833 12.4049ZM14.9083 15.5132V13.2299H16.1667C16.65 13.2299 17.4583 13.3799 17.4583 14.3799C17.4583 15.1049 16.9833 15.5132 16.1667 15.5132H14.9083ZM16.1833 12.4049H14.5167C14.4623 12.4048 14.4085 12.4157 14.3585 12.4367C14.3084 12.4578 14.263 12.4886 14.2249 12.5274C14.1869 12.5662 14.157 12.6122 14.137 12.6627C14.117 12.7132 14.1072 12.7672 14.1083 12.8215V15.9215C14.1083 16.0298 14.1514 16.1337 14.2279 16.2103C14.3045 16.2868 14.4084 16.3299 14.5167 16.3299H16.1833C16.2315 16.333 16.2797 16.3344 16.3278 16.3339C16.5479 16.3321 16.7664 16.2933 16.9743 16.2189C17.2276 16.1282 17.4596 15.9865 17.6559 15.8025C17.8523 15.6186 18.0088 15.3963 18.1158 15.1494C18.2227 14.9026 18.278 14.6364 18.278 14.3674C18.278 14.0983 18.2227 13.8321 18.1158 13.5853C18.0088 13.3384 17.8523 13.1161 17.6559 12.9322C17.4596 12.7482 17.2276 12.6065 16.9743 12.5158C16.7664 12.4414 16.5479 12.4026 16.3278 12.4008C16.2797 12.4004 16.2315 12.4017 16.1833 12.4049ZM14.9083 15.5132V13.2299H16.1667C16.65 13.2299 17.4583 13.3799 17.4583 14.3799C17.4583 15.1049 16.9833 15.5132 16.1667 15.5132H14.9083ZM16.1833 12.4049H14.5167C14.4623 12.4048 14.4085 12.4157 14.3585 12.4367C14.3084 12.4578 14.263 12.4886 14.2249 12.5274C14.1869 12.5662 14.157 12.6122 14.137 12.6627C14.117 12.7132 14.1072 12.7672 14.1083 12.8215V15.9215C14.1083 16.0298 14.1514 16.1337 14.2279 16.2103C14.3045 16.2868 14.4084 16.3299 14.5167 16.3299H16.1833C16.2315 16.333 16.2797 16.3344 16.3278 16.3339C16.5479 16.3321 16.7664 16.2933 16.9743 16.2189C17.2276 16.1282 17.4596 15.9865 17.6559 15.8025C17.8523 15.6186 18.0088 15.3963 18.1158 15.1494C18.2227 14.9026 18.278 14.6364 18.278 14.3674C18.278 14.0983 18.2227 13.8321 18.1158 13.5853C18.0088 13.3384 17.8523 13.1161 17.6559 12.9322C17.4596 12.7482 17.2276 12.6065 16.9743 12.5158C16.7664 12.4414 16.5479 12.4026 16.3278 12.4008C16.2797 12.4004 16.2315 12.4017 16.1833 12.4049ZM14.9083 15.5132V13.2299H16.1667C16.65 13.2299 17.4583 13.3799 17.4583 14.3799C17.4583 15.1049 16.9833 15.5132 16.1667 15.5132H14.9083ZM16.1833 12.4049H14.5167C14.4623 12.4048 14.4085 12.4157 14.3585 12.4367C14.3084 12.4578 14.263 12.4886 14.2249 12.5274C14.1869 12.5662 14.157 12.6122 14.137 12.6627C14.117 12.7132 14.1072 12.7672 14.1083 12.8215V15.9215C14.1083 16.0298 14.1514 16.1337 14.2279 16.2103C14.3045 16.2868 14.4084 16.3299 14.5167 16.3299H16.1833C16.2315 16.333 16.2797 16.3344 16.3278 16.3339C16.5479 16.3321 16.7664 16.2933 16.9743 16.2189C17.2276 16.1282 17.4596 15.9865 17.6559 15.8025C17.8523 15.6186 18.0088 15.3963 18.1158 15.1494C18.2227 14.9026 18.278 14.6364 18.278 14.3674C18.278 14.0983 18.2227 13.8321 18.1158 13.5853C18.0088 13.3384 17.8523 13.1161 17.6559 12.9322C17.4596 12.7482 17.2276 12.6065 16.9743 12.5158C16.7664 12.4414 16.5479 12.4026 16.3278 12.4008C16.2797 12.4004 16.2315 12.4017 16.1833 12.4049ZM14.9083 15.5132V13.2299H16.1667C16.65 13.2299 17.4583 13.3799 17.4583 14.3799C17.4583 15.1049 16.9833 15.5132 16.1667 15.5132H14.9083ZM16.1833 12.4049H14.5167C14.4623 12.4048 14.4085 12.4157 14.3585 12.4367C14.3084 12.4578 14.263 12.4886 14.2249 12.5274C14.1869 12.5662 14.157 12.6122 14.137 12.6627C14.117 12.7132 14.1072 12.7672 14.1083 12.8215V15.9215C14.1083 16.0298 14.1514 16.1337 14.2279 16.2103C14.3045 16.2868 14.4084 16.3299 14.5167 16.3299H16.1833C16.2315 16.333 16.2797 16.3344 16.3278 16.3339C16.5479 16.3321 16.7664 16.2933 16.9743 16.2189C17.2276 16.1282 17.4596 15.9865 17.6559 15.8025C17.8523 15.6186 18.0088 15.3963 18.1158 15.1494C18.2227 14.9026 18.278 14.6364 18.278 14.3674C18.278 14.0983 18.2227 13.8321 18.1158 13.5853C18.0088 13.3384 17.8523 13.1161 17.6559 12.9322C17.4596 12.7482 17.2276 12.6065 16.9743 12.5158C16.7664 12.4414 16.5479 12.4026 16.3278 12.4008C16.2797 12.4004 16.2315 12.4017 16.1833 12.4049ZM14.9083 15.5132V13.2299H16.1667C16.65 13.2299 17.4583 13.3799 17.4583 14.3799C17.4583 15.1049 16.9833 15.5132 16.1667 15.5132H14.9083ZM16.1833 12.4049H14.5167C14.4623 12.4048 14.4085 12.4157 14.3585 12.4367C14.3084 12.4578 14.263 12.4886 14.2249 12.5274C14.1869 12.5662 14.157 12.6122 14.137 12.6627C14.117 12.7132 14.1072 12.7672 14.1083 12.8215V15.9215C14.1083 16.0298 14.1514 16.1337 14.2279 16.2103C14.3045 16.2868 14.4084 16.3299 14.5167 16.3299H16.1833C16.2315 16.333 16.2797 16.3344 16.3278 16.3339C16.5479 16.3321 16.7664 16.2933 16.9743 16.2189C17.2276 16.1282 17.4596 15.9865 17.6559 15.8025C17.8523 15.6186 18.0088 15.3963 18.1158 15.1494C18.2227 14.9026 18.278 14.6364 18.278 14.3674C18.278 14.0983 18.2227 13.8321 18.1158 13.5853C18.0088 13.3384 17.8523 13.1161 17.6559 12.9322C17.4596 12.7482 17.2276 12.6065 16.9743 12.5158C16.7664 12.4414 16.5479 12.4026 16.3278 12.4008C16.2797 12.4004 16.2315 12.4017 16.1833 12.4049ZM14.9083 15.5132V13.2299H16.1667C16.65 13.2299 17.4583 13.3799 17.4583 14.3799C17.4583 15.1049 16.9833 15.5132 16.1667 15.5132H14.9083ZM16.1833 12.4049H14.5167C14.4623 12.4048 14.4085 12.4157 14.3585 12.4367C14.3084 12.4578 14.263 12.4886 14.2249 12.5274C14.1869 12.5662 14.157 12.6122 14.137 12.6627C14.117 12.7132 14.1072 12.7672 14.1083 12.8215V15.9215C14.1083 16.0298 14.1514 16.1337 14.2279 16.2103C14.3045 16.2868 14.4084 16.3299 14.5167 16.3299H16.1833C16.2315 16.333 16.2797 16.3344 16.3278 16.3339C16.5479 16.3321 16.7664 16.2933 16.9743 16.2189C17.2276 16.1282 17.4596 15.9865 17.6559 15.8025C17.8523 15.6186 18.0088 15.3963 18.1158 15.1494C18.2227 14.9026 18.278 14.6364 18.278 14.3674C18.278 14.0983 18.2227 13.8321 18.1158 13.5853C18.0088 13.3384 17.8523 13.1161 17.6559 12.9322C17.4596 12.7482 17.2276 12.6065 16.9743 12.5158C16.7664 12.4414 16.5479 12.4026 16.3278 12.4008C16.2797 12.4004 16.2315 12.4017 16.1833 12.4049ZM14.9083 15.5132V13.2299H16.1667C16.65 13.2299 17.4583 13.3799 17.4583 14.3799C17.4583 15.1049 16.9833 15.5132 16.1667 15.5132H14.9083ZM16.1833 12.4049H14.5167C14.4623 12.4048 14.4085 12.4157 14.3585 12.4367C14.3084 12.4578 14.263 12.4886 14.2249 12.5274C14.1869 12.5662 14.157 12.6122 14.137 12.6627C14.117 12.7132 14.1072 12.7672 14.1083 12.8215V15.9215C14.1083 16.0298 14.1514 16.1337 14.2279 16.2103C14.3045 16.2868 14.4084 16.3299 14.5167 16.3299H16.1833C16.2315 16.333 16.2797 16.3344 16.3278 16.3339C16.5479 16.3321 16.7664 16.2933 16.9743 16.2189C17.2276 16.1282 17.4596 15.9865 17.6559 15.8025C17.8523 15.6186 18.0088 15.3963 18.1158 15.1494C18.2227 14.9026 18.278 14.6364 18.278 14.3674C18.278 14.0983 18.2227 13.8321 18.1158 13.5853C18.0088 13.3384 17.8523 13.1161 17.6559 12.9322C17.4596 12.7482 17.2276 12.6065 16.9743 12.5158C16.7664 12.4414 16.5479 12.4026 16.3278 12.4008C16.2797 12.4004 16.2315 12.4017 16.1833 12.4049ZM14.9083 15.5132V13.2299H16.1667C16.65 13.2299 17.4583 13.3799 17.4583 14.3799C17.4583 15.1049 16.9833 15.5132 16.1667 15.5132H14.9083ZM16.1833 12.4049H14.5167C14.4623 12.4048 14.4085 12.4157 14.3585 12.4367C14.3084 12.4578 14.263 12.4886 14.2249 12.5274C14.1869 12.5662 14.157 12.6122 14.137 12.6627C14.117 12.7132 14.1072 12.7672 14.1083 12.8215V15.9215C14.1083 16.0298 14.1514 16.1337 14.2279 16.2103C14.3045 16.2868 14.4084 16.3299 14.5167 16.3299H16.1833C16.2315 16.333 16.2797 16.3344 16.3278 16.3339C16.5479 16.3321 16.7664 16.2933 16.9743 16.2189C17.2276 16.1282 17.4596 15.9865 17.6559 15.8025C17.8523 15.6186 18.0088 15.3963 18.1158 15.1494C18.2227 14.9026 18.278 14.6364 18.278 14.3674C18.278 14.0983 18.2227 13.8321 18.1158 13.5853C18.0088 13.3384 17.8523 13.1161 17.6559 12.9322C17.4596 12.7482 17.2276 12.6065 16.9743 12.5158C16.7664 12.4414 16.5479 12.4026 16.3278 12.4008C16.2797 12.4004 16.2315 12.4017 16.1833 12.4049ZM14.9083 15.5132V13.2299H16.1667C16.65 13.2299 17.4583 13.3799 17.4583 14.3799C17.4583 15.1049 16.9833 15.5132 16.1667 15.5132H14.9083ZM16.1833 12.4049H14.5167C14.4623 12.4048 14.4085 12.4157 14.3585 12.4367C14.3084 12.4578 14.263 12.4886 14.2249 12.5274C14.1869 12.5662 14.157 12.6122 14.137 12.6627C14.117 12.7132 14.1072 12.7672 14.1083 12.8215V15.9215C14.1083 16.0298 14.1514 16.1337 14.2279 16.2103C14.3045 16.2868 14.4084 16.3299 14.5167 16.3299H16.1833C16.2315 16.333 16.2797 16.3344 16.3278 16.3339C16.5479 16.3321 16.7664 16.2933 16.9743 16.2189C17.2276 16.1282 17.4596 15.9865 17.6559 15.8025C17.8523 15.6186 18.0088 15.3963 18.1158 15.1494C18.2227 14.9026 18.278 14.6364 18.278 14.3674C18.278 14.0983 18.2227 13.8321 18.1158 13.5853C18.0088 13.3384 17.8523 13.1161 17.6559 12.9322C17.4596 12.7482 17.2276 12.6065 16.9743 12.5158C16.7664 12.4414 16.5479 12.4026 16.3278 12.4008C16.2797 12.4004 16.2315 12.4017 16.1833 12.4049ZM14.9083 15.5132V13.2299H16.1667C16.65 13.2299 17.4583 13.3799 17.4583 14.3799C17.4583 15.1049 16.9833 15.5132 16.1667 15.5132H14.9083ZM16.1833 12.4049H14.5167C14.4623 12.4048 14.4085 12.4157 14.3585 12.4367C14.3084 12.4578 14.263 12.4886 14.2249 12.5274C14.1869 12.5662 14.157 12.6122 14.137 12.6627C14.117 12.7132 14.1072 12.7672 14.1083 12.8215V15.9215C14.1083 16.0298 14.1514 16.1337 14.2279 16.2103C14.3045 16.2868 14.4084 16.3299 14.5167 16.3299H16.1833C16.2315 16.333 16.2797 16.3344 16.3278 16.3339C16.5479 16.3321 16.7664 16.2933 16.9743 16.2189C17.2276 16.1282 17.4596 15.9865 17.6559 15.8025C17.8523 15.6186 18.0088 15.3963 18.1158 15.1494C18.2227 14.9026 18.278 14.6364 18.278 14.3674C18.278 14.0983 18.2227 13.8321 18.1158 13.5853C18.0088 13.3384 17.8523 13.1161 17.6559 12.9322C17.4596 12.7482 17.2276 12.6065 16.9743 12.5158C16.7664 12.4414 16.5479 12.4026 16.3278 12.4008C16.2797 12.4004 16.2315 12.4017 16.1833 12.4049ZM14.9083 15.5132V13.2299H16.1667C16.65 13.2299 17.4583 13.3799 17.4583 14.3799C17.4583 15.1049 16.9833 15.5132 16.1667 15.5132H14.9083ZM16.1833 12.4049H14.5167C14.4623 12.4048 14.4085 12.4157 14.3585 12.4367C14.3084 12.4578 14.263 12.4886 14.2249 12.5274C14.1869 12.5662 14.157 12.6122 14.137 12.6627C14.117 12.7132 14.1072 12.7672 14.1083 12.8215V15.9215C14.1083 16.0298 14.1514 16.1337 14.2279 16.2103C14.3045 16.2868 14.4084 16.3299 14.5167 16.3299H16.1833C16.2315 16.333 16.2797 16.3344 16.3278 16.3339C16.5479 16.3321 16.7664 16.2933 16.9743 16.2189C17.2276 16.1282 17.4596 15.9865 17.6559 15.8025C17.8523 15.6186 18.0088 15.3963 18.1158 15.1494C18.2227 14.9026 18.278 14.6364 18.278 14.3674C18.278 14.0983 18.2227 13.8321 18.1158 13.5853C18.0088 13.3384 17.8523 13.1161 17.6559 12.9322C17.4596 12.7482 17.2276 12.6065 16.9743 12.5158C16.7664 12.4414 16.5479 12.4026 16.3278 12.4008C16.2797 12.4004 16.2315 12.4017 16.1833 12.4049ZM14.9083 15.5132V13.2299H16.1667C16.65 13.2299 17.4583 13.3799 17.4583 14.3799C17.4583 15.1049 16.9833 15.5132 16.1667 15.5132H14.9083ZM16.1833 12.4049H14.5167C14.4623 12.4048 14.4085 12.4157 14.3585 12.4367C14.3084 12.4578 14.263 12.4886 14.2249 12.5274C14.1869 12.5662 14.157 12.6122 14.137 12.6627C14.117 12.7132 14.1072 12.7672 14.1083 12.8215V15.9215C14.1083 16.0298 14.1514 16.1337 14.2279 16.2103C14.3045 16.2868 14.4084 16.3299 14.5167 16.3299H16.1833C16.2315 16.333 16.2797 16.3344 16.3278 16.3339C16.5479 16.3321 16.7664 16.2933 16.9743 16.2189C17.2276 16.1282 17.4596 15.9865 17.6559 15.8025C17.8523 15.6186 18.0088 15.3963 18.1158 15.1494C18.2227 14.9026 18.278 14.6364 18.278 14.3674C18.278 14.0983 18.2227 13.8321 18.1158 13.5853C18.0088 13.3384 17.8523 13.1161 17.6559 12.9322C17.4596 12.7482 17.2276 12.6065 16.9743 12.5158C16.7664 12.4414 16.5479 12.4026 16.3278 12.4008C16.2797 12.4004 16.2315 12.4017 16.1833 12.4049ZM14.9083 15.5132V13.2299H16.1667C16.65 13.2299 17.4583 13.3799 17.4583 14.3799C17.4583 15.1049 16.9833 15.5132 16.1667 15.5132H14.9083ZM16.1833 12.4049H14.5167C14.4623 12.4048 14.4085 12.4157 14.3585 12.4367C14.3084 12.4578 14.263 12.4886 14.2249 12.5274C14.1869 12.5662 14.157 12.6122 14.137 12.6627C14.117 12.7132 14.1072 12.7672 14.1083 12.8215V15.9215C14.1083 16.0298 14.1514 16.1337 14.2279 16.2103C14.3045 16.2868 14.4084 16.3299 14.5167 16.3299H16.1833C16.2315 16.333 16.2797 16.3344 16.3278 16.3339C16.5479 16.3321 16.7664 16.2933 16.9743 16.2189C17.2276 16.1282 17.4596 15.9865 17.6559 15.8025C17.8523 15.6186 18.0088 15.3963 18.1158 15.1494C18.2227 14.9026 18.278 14.6364 18.278 14.3674C18.278 14.0983 18.2227 13.8321 18.1158 13.5853C18.0088 13.3384 17.8523 13.1161 17.6559 12.9322C17.4596 12.7482 17.2276 12.6065 16.9743 12.5158C16.7664 12.4414 16.5479 12.4026 16.3278 12.4008C16.2797 12.4004 16.2315 12.4017 16.1833 12.4049ZM14.9083 15.5132V13.2299H16.1667C16.65 13.2299 17.4583 13.3799 17.4583 14.3799C17.4583 15.1049 16.9833 15.5132 16.1667 15.5132H14.9083ZM16.1833 12.4049H14.5167C14.4623 12.4048 14.4085 12.4157 14.3585 12.4367C14.3084 12.4578 14.263 12.4886 14.2249 12.5274C14.1869 12.5662 14.157 12.6122 14.137 12.6627C14.117 12.7132 14.1072 12.7672 14.1083 12.8215V15.9215C14.1083 16.0298 14.1514 16.1337 14.2279 16.2103C14.3045 16.2868 14.4084 16.3299 14.5167 16.3299H16.1833C16.2315 16.333 16.2797 16.3344 16.3278 16.3339C16.5479 16.3321 16.7664 16.2933 16.9743 16.2189C17.2276 16.1282 17.4596 15.9865 17.6559 15.8025C17.8523 15.6186 18.0088 15.3963 18.1158 15.1494C18.2227 14.9026 18.278 14.6364 18.278 14.3674C18.278 14.0983 18.2227 13.8321 18.1158 13.5853C18.0088 13.3384 17.8523 13.1161 17.6559 12.9322C17.4596 12.7482 17.2276 12.6065 16.9743 12.5158C16.7664 12.4414 16.5479 12.4026 16.3278 12.4008C16.2797 12.4004 16.2315 12.4017 16.1833 12.4049ZM14.9083 15.5132V13.2299H16.1667C16.65 13.2299 17.4583 13.3799 17.4583 14.3799C17.4583 15.1049 16.9833 15.5132 16.1667 15.5132H14.9083ZM16.1833 12.4049H14.5167C14.4623 12.4048 14.4085 12.4157 14.3585 12.4367C14.3084 12.4578 14.263 12.4886 14.2249 12.5274C14.1869 12.5662 14.157 12.6122 14.137 12.6627C14.117 12.7132 14.1072 12.7672 14.1083 12.8215V15.9215C14.1083 16.0298 14.1514 16.1337 14.2279 16.2103C14.3045 16.2868 14.4084 16.3299 14.5167 16.3299H16.1833C16.2315 16.333 16.2797 16.3344 16.3278 16.3339C16.5479 16.3321 16.7664 16.2933 16.9743 16.2189C17.2276 16.1282 17.4596 15.9865 17.6559 15.8025C17.8523 15.6186 18.0088 15.3963 18.1158 15.1494C18.2227 14.9026 18.278 14.6364 18.278 14.3674C18.278 14.0983 18.2227 13.8321 18.1158 13.5853C18.0088 13.3384 17.8523 13.1161 17.6559 12.9322C17.4596 12.7482 17.2276 12.6065 16.9743 12.5158C16.7664 12.4414 16.5479 12.4026 16.3278 12.4008C16.2797 12.4004 16.2315 12.4017 16.1833 12.4049ZM14.9083 15.5132V13.2299H16.1667C16.65 13.2299 17.4583 13.3799 17.4583 14.3799C17.4583 15.1049 16.9833 15.5132 16.1667 15.5132H14.9083ZM16.1833 12.4049H14.5167C14.4623 12.4048 14.4085 12.4157 14.3585 12.4367C14.3084 12.4578 14.263 12.4886 14.2249 12.5274C14.1869 12.5662 14.157 12.6122 14.137 12.6627C14.117 12.7132 14.1072 12.7672 14.1083 12.8215V15.9215C14.1083 16.0298 14.1514 16.1337 14.2279 16.2103C14.3045 16.2868 14.4084 16.3299 14.5167 16.3299H16.1833C16.2315 16.333 16.2797 16.3344 16.3278 16.3339C16.5479 16.3321 16.7664 16.2933 16.9743 16.2189C17.2276 16.1282 17.4596 15.9865 17.6559 15.8025C17.8523 15.6186 18.0088 15.3963 18.1158 15.1494C18.2227 14.9026 18.278 14.6364 18.278 14.3674C18.278 14.0983 18.2227 13.8321 18.1158 13.5853C18.0088 13.3384 17.8523 13.1161 17.6559 12.9322C17.4596 12.7482 17.2276 12.6065 16.9743 12.5158C16.7664 12.4414 16.5479 12.4026 16.3278 12.4008C16.2797 12.4004 16.2315 12.4017 16.1833 12.4049ZM14.9083 15.5132V13.2299H16.1667C16.65 13.2299 17.4583 13.3799 17.4583 14.3799C17.4583 15.1049 16.9833 15.5132 16.1667 15.5132H14.9083ZM16.1833 12.4049H14.5167C14.4623 12.4048 14.4085 12.4157 14.3585 12.4367C14.3084 12.4578 14.263 12.4886 14.2249 12.5274C14.1869 12.5662 14.157 12.6122 14.137 12.6627C14.117 12.7132 14.1072 12.7672 14.1083 12.8215V15.9215C14.1083 16.0298 14.1514 16.1337 14.2279 16.2103C14.3045 16.2868 14.4084 16.3299 14.5167 16.3299H16.1833C16.2315 16.333 16.2797 16.3344 16.3278 16.3339C16.5479 16.3321 16.7664 16.2933 16.9743 16.2189C17.2276 16.1282 17.4596 15.9865 17.6559 15.8025C17.8523 15.6186 18.0088 15.3963 18.1158 15.1494C18.2227 14.9026 18.278 14.6364 18.278 14.3674C18.278 14.0983 18.2227 13.8321 18.1158 13.5853C18.0088 13.3384 17.8523 13.1161 17.6559 12.9322C17.4596 12.7482 17.2276 12.6065 16.9743 12.5158C16.7664 12.4414 16.5479 12.4026 16.3278 12.4008C16.2797 12.4004 16.2315 12.4017 16.1833 12.4049ZM14.9083 15.5132V13.2299H16.1667C16.65 13.2299 17.4583 13.3799 17.4583 14.3799C17.4583 15.1049 16.9833 15.5132 16.1667 15.5132H14.9083ZM16.1833 12.4049H14.5167C14.4623 12.4048 14.4085 12.4157 14.3585 12.4367C14.3084 12.4578 14.263 12.4886 14.2249 12.5274C14.1869 12.5662 14.157 12.6122 14.137 12.6627C14.117 12.7132 14.1072 12.7672 14.1083 12.8215V15.9215C14.1083 16.0298 14.1514 16.1337 14.2279 16.2103C14.3045 16.2868 14.4084 16.3299 14.5167 16.3299H16.1833C16.2315 16.333 16.2797 16.3344 16.3278 16.3339C16.5479 16.3321 16.7664 16.2933 16.9743 16.2189C17.2276 16.1282 17.4596 15.9865 17.6559 15.8025C17.8523 15.6186 18.0088 15.3963 18.1158 15.1494C18.2227 14.9026 18.278 14.6364 18.278 14.3674C18.278 14.0983 18.2227 13.8321 18.1158 13.5853C18.0088 13.3384 17.8523 13.1161 17.6559 12.9322C17.4596 12.7482 17.2276 12.6065 16.9743 12.5158C16.7664 12.4414 16.5479 12.4026 16.3278 12.4008C16.2797 12.4004 16.2315 12.4017 16.1833 12.4049ZM14.9083 15.5132V13.2299H16.1667C16.65 13.2299 17.4583 13.3799 17.4583 14.3799C17.4583 15.1049 16.9833 15.5132 16.1667 15.5132H14.9083Z" fill="#343434"/>
</g>
<defs>
<clipPath id="clip0_1793_16911">
<rect width="30" height="30" fill="white" transform="translate(1 1)"/>
</clipPath>
</defs>
</svg>
